<svg width="20" height="20" fill="none" xmlns="http://www.w3.org/2000/svg"><path d="M18.335 14.1v2.5a1.666 1.666 0 01-1.817 1.666 16.492 16.492 0 01-7.191-2.558 16.251 16.251 0 01-5-5 16.492 16.492 0 01-2.559-7.225 1.667 1.667 0 011.659-1.817h2.5A1.667 1.667 0 017.593 3.1c.106.8.302 1.586.584 2.342A1.667 1.667 0 017.802 7.2L6.743 8.258a13.333 13.333 0 005 5l1.059-1.059a1.667 1.667 0 011.758-.375c.756.283 1.542.478 2.342.584a1.667 1.667 0 011.433 1.691z" stroke="#F4F4F6" stroke-linecap="round" stroke-linejoin="round"/></svg>