<svg width="32" height="32" fill="none" xmlns="http://www.w3.org/2000/svg"><path d="M10.592 7.419A10.996 10.996 0 005 17c0 6.075 4.925 11 11 11s11-4.925 11-11c0-5.542-4.098-10.126-9.43-10.889" stroke="#F4F4F6" stroke-width="2" stroke-linecap="round"/><path d="M19 5.778v1a1 1 0 00.8-1.6l-.8.6zm-3.557 7.11v1a1 1 0 00.8-1.6l-.8.6zM19 6.779h-.002H19v-2h-.001v2zm-3.444 3.444A3.444 3.444 0 0119 6.779v-2a5.444 5.444 0 00-5.444 5.444h2zm.688 2.066a3.425 3.425 0 01-.688-2.066h-2c0 1.224.405 2.357 1.089 3.267l1.599-1.201zm-.8-.4A3.444 3.444 0 0112 8.445h-2a5.444 5.444 0 005.443 5.444v-2zM12 8.445A3.444 3.444 0 0115.444 5V3A5.444 5.444 0 0010 8.444h2zM15.444 5A3.44 3.44 0 0118.2 6.378l1.6-1.2A5.438 5.438 0 0015.444 3v2z" fill="#F4F4F6"/><path d="M19 16s1-1 2.5-1 2.5 1 2.5 1M9 16s1-1 2.5-1 2.5 1 2.5 1m5 6s-1 1-2.5 1-2.5-1-2.5-1" stroke="#F4F4F6" stroke-width="2" stroke-linecap="round" stroke-linejoin="round"/><rect x="27" y="14" width="3.6" height="6" rx="1.8" stroke="#F4F4F6" stroke-width="2"/><rect x="1.398" y="14" width="3.6" height="5.4" rx="1.8" stroke="#F4F4F6" stroke-width="2"/></svg>