<svg width="32" height="32" fill="none" xmlns="http://www.w3.org/2000/svg"><path d="M24.625 22.44l.52 4.213c.134 1.107-1.053 1.88-2 1.307l-5.587-3.32c-.613 0-1.213-.04-1.8-.12.987-1.16 1.574-2.627 1.574-4.213 0-3.787-3.28-6.854-7.334-6.854-1.546 0-2.973.44-4.16 1.213a8.451 8.451 0 01-.053-1.013c0-6.067 5.267-10.986 11.773-10.986 6.507 0 11.774 4.92 11.774 10.986 0 3.6-1.854 6.787-4.707 8.787z" stroke="#F4F4F6" stroke-width="2" stroke-linecap="round" stroke-linejoin="round"/><path d="M17.335 20.307c0 1.586-.587 3.053-1.574 4.213-1.32 1.6-3.413 2.627-5.76 2.627l-3.48 2.066c-.586.36-1.333-.133-1.253-.813l.333-2.627c-1.786-1.24-2.933-3.226-2.933-5.466 0-2.347 1.253-4.414 3.173-5.64a7.577 7.577 0 014.16-1.214c4.054 0 7.334 3.067 7.334 6.854z" stroke="#F4F4F6" stroke-width="2" stroke-linecap="round" stroke-linejoin="round"/></svg>