<svg width="193" height="51" fill="none" xmlns="http://www.w3.org/2000/svg"><g clip-path="url(#clip0_363_830)" fill="#F4F4F6"><path d="M45.04 26.072c1.594.302 3.443 1.124 4.883 1.812.293.14.565.278.822.415.1-.92.156-1.853.156-2.799C50.9 11.417 39.506 0 25.45 0 11.394 0 0 11.417 0 25.5S11.395 51 25.45 51c9.83 0 18.353-5.587 22.592-13.762-.944-.48-2.198-.815-2.618-.888-5.192-.89-7.808 4.214-12.292 4.456-3.858.21-9.824-2.168-13.062-3.881-2.87-1.52-5.362-3.197-8.476-4.292-.796-.28-2.63-.711-2.593-1.58.607-.578 2.11-.612 3.071-.5 1.09.127 1.996.365 3.003.688 1.817.584 3.755 1.185 5.608 1.817.923.316 1.865.645 2.847.898 1.485.386 9.173.226 9.501-1.298-1.514-.463-8.95-.22-11.282-2.183-.91-.768-.869-1.486.59-1.623 1.173-.11 2.121.108 3.226.133 2.107.05 4.197-.2 6.198-.52a74.767 74.767 0 002.906-.502c.924-.184 1.912-.448 2.786-.594 1.74-.289 4.578-.016 6.19.372 1.577.38 3.442 1.124 4.882 1.811.741.353 1.38.707 1.87 1.016.05-.25.091-.502.134-.754a19.53 19.53 0 00-1.724-.924c-.826-.394-2.967-1.363-5.011-1.857-1.29-.31-3.097-.51-4.605-.51-.708 0-1.33.044-1.847.13-.535.088-1.11.22-1.666.347l-.132.03.003-.64s2.453-1.65 9.492-.318zm-14.145 7.002c-.557.327-3.524.444-4.371.393l-.002-.816 4.373.423zm-18.75-3.243a8.596 8.596 0 00-.97-.055c-.2 0-.416.008-.638.026a.65.65 0 01-.14-.417c.607-.578 2.109-.613 3.07-.501a13.2 13.2 0 011.537.272c0 .37 0 .74-.002 1.111 0 .07.001.134.004.196a15.314 15.314 0 00-2.86-.632zm11.881-1.614c-.802.02-4.264-.28-3.377 1.848.47 1.13 2.026 1.691 3.402 2.063l-.016 1.291c-.862-.097-5.715-1.797-6.994-2.196-.289-.09-.561-.186-.877-.283-.464-.142-.505-.05-.501-.602.005-.771.003-1.544.003-2.315 0-1.438-.073-4.56.01-6.01l8.375.012-.025 6.192zm.025-8.785h-9.856a1.077 1.077 0 01-1.076-1.079v-3.599c0-.595.482-1.078 1.076-1.078h9.856v5.756zm10.84 7.835c-.996.379-7.136 1.181-8.373 1.077l.018-6.332 8.37.022-.015 5.233zm2.555-8.914c0 .596-.482 1.079-1.076 1.079h-9.856v-5.756h9.856c.594 0 1.076.483 1.076 1.078v3.6zm28.844-5.502c-.722-.375-1.58-.562-2.578-.562h-6.747v13.388h3.073V21.32h3.674c.997 0 1.856-.187 2.577-.562a3.959 3.959 0 001.659-1.58c.384-.678.577-1.47.577-2.374 0-.904-.193-1.696-.578-2.374a3.958 3.958 0 00-1.658-1.58zm-1.359 5.266c-.336.316-.796.473-1.381.473h-3.512v-3.57h3.512c.585 0 1.045.158 1.382.473.335.316.504.753.504 1.312 0 .56-.169.997-.505 1.312zm12.994-2.614l-2.862 7.303-2.813-7.303h-3.316l4.016 9.371h1.303l-.035.09c-.228.57-.512.964-.854 1.178-.341.214-.74.321-1.195.321-.51 0-.978-.074-1.406-.223-.429-.149-.886-.396-1.374-.74v2.338a5.55 5.55 0 001.471.803c.504.179 1.082.268 1.732.268.53 0 1.043-.093 1.536-.277.493-.185.951-.49 1.374-.92.423-.428.786-.999 1.09-1.713l4.535-10.496h-3.202zm9.773 6.523l1.979 3.652h3.43L89.62 19.59l3.227-4.088h-3.235L85.14 21.53v-6.028h-3.008v10.175h2.683l2.882-3.652zm17.652 3.652V15.503h-3.886l-4.536 7.106v-7.106h-2.96v10.175h3.773l4.633-7.259v7.259h2.976zm20.389-.001V15.503h-4.536l-2.629 7.194-2.671-7.194h-4.52v10.174h2.829V18.18l2.943 7.498h2.796l2.959-7.57v7.57h2.829zm13.314.001V15.503h-3.886l-4.536 7.106v-7.106h-2.959v10.175h3.772l4.634-7.259v7.259h2.975zm6.458-6.988a60.92 60.92 0 00-.045-.706h3.914v7.694h3.008V15.503h-9.82c.086.869.151 1.663.195 2.383.043.72.065 1.366.065 1.937 0 1.226-.117 2.103-.35 2.633-.233.53-.62.794-1.162.794-.152 0-.323-.02-.512-.062a3.224 3.224 0 01-.577-.188v2.374c.292.19.596.324.91.402.314.077.639.116.976.116 1.213 0 2.091-.443 2.634-1.33.541-.886.812-2.312.812-4.275 0-.476-.016-1.009-.048-1.598zm11.152 6.595c.878.451 1.902.678 3.073.678 1.17 0 2.197-.227 3.081-.678.883-.453 1.569-1.08 2.056-1.884.488-.803.732-1.74.732-2.811s-.244-2.009-.732-2.812c-.487-.803-1.173-1.43-2.056-1.883-.884-.452-1.911-.678-3.081-.678-1.16 0-2.182.226-3.065.678-.883.452-1.569 1.08-2.057 1.883-.487.804-.731 1.74-.731 2.812 0 1.059.244 1.993.731 2.802a5.018 5.018 0 002.049 1.893zm.602-6.23a2.37 2.37 0 01.975-.991c.423-.232.921-.348 1.496-.348.596 0 1.103.116 1.52.348.417.232.737.562.959.99.222.429.334.94.334 1.536 0 .595-.112 1.106-.334 1.535a2.342 2.342 0 01-.959.99c-.417.233-.924.349-1.52.349-.575 0-1.073-.116-1.496-.348a2.373 2.373 0 01-.975-.991c-.228-.429-.342-.94-.342-1.535s.114-1.107.342-1.535zm13.664-1c.395-.226.859-.34 1.39-.34.672 0 1.243.174 1.715.518.471.346.767.846.886 1.5h3.008c-.087-.904-.388-1.693-.902-2.365a5.309 5.309 0 00-1.984-1.58c-.808-.38-1.715-.571-2.723-.571-1.117 0-2.103.226-2.959.678a4.953 4.953 0 00-2 1.892c-.477.81-.715 1.744-.715 2.803s.238 1.993.715 2.802a4.95 4.95 0 002 1.893c.856.451 1.842.678 2.959.678 1.008 0 1.915-.19 2.723-.572a5.268 5.268 0 001.984-1.588 4.551 4.551 0 00.902-2.356h-3.008c-.119.619-.412 1.11-.878 1.472-.466.363-1.04.545-1.723.545-.531 0-.995-.113-1.39-.34a2.291 2.291 0 01-.919-.981c-.217-.429-.325-.946-.325-1.553s.108-1.125.325-1.553c.217-.429.523-.756.919-.982zm7.341-.035h3.593v7.657h3.024V18.02h3.609v-2.517H178.27v2.517zm12.941-3.589c.542 0 .975-.151 1.301-.455.325-.303.487-.705.487-1.205 0-.511-.162-.916-.487-1.213-.326-.298-.759-.447-1.301-.447-.531 0-.965.15-1.301.447-.336.297-.504.702-.504 1.213 0 .5.168.902.504 1.205.336.304.77.455 1.301.455zm-1.512.929v10.317h3.008V15.359l-1.512.34-1.496-.34zM60.206 34.79c-.352-.267-.88-.4-1.585-.4h-1.229v-2.307h3.015v-.403h-3.442v6.141h1.752c.649 0 1.147-.152 1.495-.458.348-.305.522-.74.522-1.306 0-.577-.176-1-.528-1.267zm-.336 2.32c-.265.222-.673.333-1.224.333h-1.254v-2.676h1.17c.601 0 1.036.1 1.304.298.269.2.403.53.403.992 0 .479-.133.83-.399 1.052zm2.415-.634c-.195.668-.45 1.002-.766 1.002a.783.783 0 01-.226-.026v.379c.081.022.176.033.285.033.305 0 .553-.136.744-.41.192-.273.348-.7.47-1.28.121-.582.224-1.425.308-2.532h1.614v4.18h.411v-4.566h-2.398c-.1 1.478-.248 2.552-.442 3.22zm5.949-3.3c-.49 0-.984.117-1.485.353l.156.36c.452-.234.89-.352 1.312-.352.391 0 .675.11.85.332.177.221.265.549.265.983v.302l-.868.026c-.701.014-1.237.144-1.608.39a1.18 1.18 0 00-.555 1.038c0 .406.124.724.373.953.249.23.597.345 1.044.345.33 0 .615-.061.857-.183s.477-.33.707-.624h.033l.105.723h.306v-3.037c0-.552-.123-.958-.37-1.219-.248-.26-.622-.39-1.122-.39zm1.081 2.772c0 .496-.14.883-.421 1.162-.281.279-.665.418-1.151.418-.319 0-.565-.08-.74-.238-.175-.158-.262-.38-.262-.665 0-.359.136-.623.409-.792.272-.17.728-.27 1.369-.3l.796-.034v.45zm1.885 1.874h.414v-4.205h2.264v-.361H71.2v4.566zm5.376-4.655c-.63 0-1.124.208-1.484.624-.36.416-.541.996-.541 1.741 0 .473.08.89.243 1.252.162.361.395.638.7.832.305.193.657.29 1.057.29.634 0 1.132-.21 1.492-.628.36-.42.541-1.001.541-1.746 0-.734-.178-1.311-.535-1.733-.356-.421-.847-.632-1.473-.632zM77.736 37c-.276.352-.665.527-1.169.527-.503 0-.892-.175-1.167-.527-.276-.351-.413-.84-.413-1.468 0-.633.136-1.122.409-1.468.272-.346.66-.519 1.163-.519s.894.174 1.172.521c.278.347.417.836.417 1.466 0 .627-.138 1.117-.413 1.468zm5.22-3.744h-2.193a8.6 8.6 0 01-.327 2.31 6.187 6.187 0 01-.88 1.861h-.302v1.945h.41v-1.55h3.49v1.55h.41v-1.945h-.608v-4.171zm-.415 4.171h-2.516c.666-1.008 1.032-2.27 1.099-3.785h1.417v3.785zm2.405-4.171h-.415v4.566h.415v-4.566zm-.209-1.672c-.176 0-.264.134-.264.403 0 .272.088.408.264.408a.232.232 0 00.203-.11.529.529 0 00.073-.298.517.517 0 00-.073-.298.234.234 0 00-.203-.105zm2.105 5.835l.025-.861v-3.302h-.394v4.566h.54l2.705-4.163-.017.882v3.281h.398v-4.566h-.553l-2.704 4.163zm1.448-4.811c.833 0 1.279-.393 1.338-1.18h-.37c-.033.3-.124.515-.274.647-.15.131-.378.197-.685.197-.31 0-.54-.063-.688-.191-.148-.127-.243-.345-.285-.653h-.369c.036.414.164.714.382.9.218.187.535.28.951.28zm6.643 2.652H92.04v-2.004h-.415v4.566h.415v-2.201h2.893v2.201h.41v-4.566h-.41v2.004zm2.307 2.159l.025-.861v-3.302h-.394v4.566h.541l2.704-4.163-.017.882v3.281h.399v-4.566h-.554l-2.704 4.163zm5.922-5.338c-.148-.127-.243-.345-.285-.653h-.369c.036.414.163.714.381.9.218.187.536.28.952.28.833 0 1.279-.393 1.338-1.18h-.369c-.034.3-.126.515-.275.647-.15.131-.378.197-.686.197-.31 0-.539-.063-.687-.191zm-.77 5.338l.026-.861v-3.302h-.395v4.566h.541l2.705-4.163-.017.882v3.281h.398v-4.566h-.553l-2.705 4.163zm9.344-4.252v-1.882h-.411v1.882c-.693.05-1.23.282-1.61.693-.38.412-.57.97-.57 1.672 0 .714.192 1.279.578 1.693.386.415.92.641 1.602.68v1.983h.411v-1.982c.684-.05 1.216-.283 1.595-.698.379-.414.568-.973.568-1.676s-.189-1.26-.566-1.672c-.377-.411-.91-.642-1.597-.693zm-.411 4.352c-.557-.042-.986-.234-1.29-.578-.303-.342-.454-.812-.454-1.409 0-.59.147-1.056.442-1.397.295-.34.729-.534 1.302-.581v3.965zm1.694-.596c-.297.35-.724.549-1.283.596v-3.965c.553.047.979.243 1.278.586.299.343.449.807.449 1.392 0 .577-.148 1.04-.444 1.39zm3.901-3.756c-.629 0-1.124.208-1.485.624-.36.416-.54.996-.54 1.741 0 .473.081.89.243 1.252.162.361.395.638.7.832.304.193.657.29 1.056.29.635 0 1.133-.21 1.493-.628.361-.42.541-1.001.541-1.746 0-.734-.178-1.311-.535-1.733-.356-.421-.847-.632-1.473-.632zM118.079 37c-.275.352-.665.527-1.168.527-.503 0-.892-.175-1.167-.527-.276-.351-.413-.84-.413-1.468 0-.633.136-1.122.408-1.468.273-.346.661-.519 1.164-.519.503 0 .894.174 1.172.521.278.347.417.836.417 1.466 0 .627-.138 1.117-.413 1.468zm5.42-1.74h-2.893v-2.004h-.415v4.566h.415v-2.201h2.893v2.201h.411v-4.566h-.411v2.004zm5.047-2.004h-2.193a8.588 8.588 0 01-.327 2.31 6.193 6.193 0 01-.88 1.861h-.302v1.945h.411v-1.55h3.488v1.55h.411v-1.945h-.608v-4.171zm-.415 4.171h-2.516c.665-1.008 1.032-2.27 1.099-3.785h1.417v3.785z"/></g><defs><clipPath id="clip0_363_830"><path fill="#fff" d="M0 0h193v51H0z"/></clipPath></defs></svg>