<svg width="154" height="42" fill="none" xmlns="http://www.w3.org/2000/svg"><g clip-path="url(#clip0_363_739)" fill="#C01F2F"><path d="M35.94 21.46c1.27.242 2.745.904 3.895 1.456.233.112.451.224.656.334.08-.74.124-1.49.124-2.25C40.615 9.678 31.523.5 20.308.5 9.092.5 0 9.678 0 21s9.092 20.5 20.308 20.5c7.843 0 14.643-4.492 18.026-11.063-.753-.386-1.753-.656-2.089-.714-4.143-.716-6.23 3.387-9.808 3.582-3.078.169-7.839-1.743-10.422-3.12-2.29-1.223-4.28-2.57-6.764-3.45-.635-.226-2.099-.572-2.069-1.27.485-.465 1.683-.493 2.45-.404.87.103 1.593.295 2.397.555 1.45.469 2.996.952 4.475 1.46.736.254 1.488.518 2.271.722 1.185.31 7.32.182 7.582-1.044-1.208-.372-7.143-.176-9.003-1.755-.726-.617-.693-1.194.47-1.304.937-.088 1.693.087 2.575.107 1.681.04 3.348-.16 4.945-.418a59.44 59.44 0 002.32-.404c.737-.148 1.525-.36 2.222-.477 1.388-.233 3.653-.013 4.94.298 1.258.306 2.746.904 3.895 1.457a14.66 14.66 0 011.492.816c.04-.2.073-.403.107-.606a15.518 15.518 0 00-1.376-.743c-.658-.316-2.367-1.096-3.998-1.492-1.03-.25-2.471-.41-3.674-.41-.566 0-1.061.034-1.474.103-.427.072-.886.178-1.33.28l-.105.024.002-.515s1.958-1.325 7.574-.255zm-11.288 5.63c-.444.262-2.812.356-3.488.315l-.001-.657 3.49.341zM9.691 24.481a6.817 6.817 0 00-1.283-.023.525.525 0 01-.112-.336c.484-.465 1.683-.492 2.45-.403.436.052.835.126 1.226.22 0 .297 0 .595-.002.892 0 .056.002.108.004.158a12.15 12.15 0 00-2.283-.508zm9.48-1.298c-.64.016-3.402-.225-2.695 1.486.375.908 1.617 1.36 2.715 1.659l-.013 1.037c-.687-.078-4.56-1.444-5.58-1.765-.231-.072-.448-.15-.7-.228-.37-.114-.403-.04-.4-.483.004-.62.003-1.242.003-1.862 0-1.156-.06-3.666.008-4.83l6.682.008-.02 4.978zm.02-7.063h-7.864a.863.863 0 01-.859-.866V12.36c0-.479.385-.867.859-.867h7.864v4.628zm8.65 6.3c-.795.304-5.695.95-6.681.865l.014-5.09 6.678.017-.012 4.207zm2.038-7.166a.863.863 0 01-.859.867h-7.864v-4.628h7.864c.475 0 .86.388.86.867v2.894zm23.014-4.422c-.575-.301-1.26-.452-2.056-.452h-5.384v10.763h2.452V17.64h2.932c.796 0 1.48-.15 2.056-.452a3.17 3.17 0 001.324-1.27c.306-.545.46-1.181.46-1.908 0-.727-.154-1.364-.46-1.91a3.17 3.17 0 00-1.324-1.27zm-1.083 4.233c-.268.254-.636.38-1.103.38h-2.802v-2.87h2.802c.467 0 .835.127 1.103.38.268.254.402.606.402 1.056 0 .45-.134.8-.402 1.054zm10.368-2.102l-2.283 5.871-2.245-5.871h-2.646l3.204 7.534h1.04l-.028.072c-.181.459-.408.774-.68.947a1.752 1.752 0 01-.954.258 3.37 3.37 0 01-1.123-.18A4.476 4.476 0 0155.367 21v1.88c.38.287.772.502 1.174.646a4.1 4.1 0 001.382.215 3.45 3.45 0 001.226-.222 3.037 3.037 0 001.096-.74c.337-.344.627-.803.87-1.377l3.619-8.438h-2.556zm7.798 5.244l1.579 2.936h2.737l-2.782-4.894 2.574-3.286h-2.581l-3.568 4.846v-4.846h-2.4v8.18h2.14l2.3-2.936zm14.086 2.936v-8.18h-3.1l-3.62 5.712v-5.712H74.98v8.18h3.01l3.697-5.836v5.836h2.374zm16.268 0v-8.18h-3.62l-2.097 5.783-2.131-5.783h-3.607v8.18h2.257v-6.029l2.349 6.029h2.23l2.362-6.086v6.086h2.257zm10.626 0v-8.18h-3.1l-3.62 5.712v-5.712h-2.361v8.18h3.01l3.697-5.836v5.836h2.374zm5.151-5.619c-.01-.18-.022-.37-.036-.566h3.124v6.185h2.399v-8.18h-7.835c.069.698.121 1.337.155 1.916.035.579.052 1.098.052 1.557 0 .985-.093 1.69-.279 2.116-.186.426-.495.639-.927.639-.121 0-.258-.017-.409-.05a2.55 2.55 0 01-.46-.15v1.908c.233.153.475.26.726.323.251.062.51.093.778.093.969 0 1.67-.357 2.102-1.07.433-.712.649-1.858.649-3.436 0-.383-.013-.811-.039-1.285zm8.897 5.303c.7.363 1.517.545 2.451.545.935 0 1.754-.182 2.459-.545a4.019 4.019 0 001.641-1.514c.389-.646.584-1.4.584-2.26 0-.861-.195-1.615-.584-2.26a4.019 4.019 0 00-1.641-1.514c-.705-.364-1.524-.546-2.459-.546-.925 0-1.74.182-2.445.546a4.019 4.019 0 00-1.641 1.514c-.389.645-.584 1.399-.584 2.26 0 .851.195 1.602.584 2.253a4.01 4.01 0 001.635 1.521zm.48-5.008c.181-.345.441-.61.778-.797.337-.186.735-.28 1.193-.28.476 0 .88.094 1.213.28.333.187.588.452.766.797.177.344.266.756.266 1.234s-.089.89-.266 1.234a1.88 1.88 0 01-.766.796c-.333.187-.737.28-1.213.28-.458 0-.856-.093-1.193-.28a1.903 1.903 0 01-.778-.796c-.182-.345-.273-.756-.273-1.234s.091-.89.273-1.234zm10.903-.804a2.185 2.185 0 011.109-.273c.536 0 .993.14 1.369.417.376.277.612.679.707 1.205h2.4c-.069-.727-.309-1.36-.72-1.901a4.24 4.24 0 00-1.583-1.27c-.644-.306-1.368-.46-2.173-.46-.891 0-1.678.182-2.361.546a3.973 3.973 0 00-1.596 1.52c-.38.652-.57 1.402-.57 2.254 0 .851.19 1.602.57 2.253a3.97 3.97 0 001.596 1.521c.683.363 1.47.545 2.361.545.805 0 1.529-.153 2.173-.459a4.21 4.21 0 001.583-1.277 3.665 3.665 0 00.72-1.894h-2.4c-.095.497-.329.892-.701 1.184-.371.292-.83.437-1.375.437-.424 0-.793-.09-1.109-.272a1.834 1.834 0 01-.733-.79c-.173-.344-.259-.76-.259-1.248s.086-.904.259-1.249c.173-.344.417-.607.733-.789zm5.859-.029h2.867v6.157h2.413v-6.157h2.88v-2.023h-8.16v2.023zm10.327-2.884c.432 0 .778-.122 1.038-.366.259-.244.389-.567.389-.969 0-.411-.13-.736-.389-.976-.26-.239-.606-.358-1.038-.358-.424 0-.77.12-1.038.358-.268.24-.402.565-.402.976 0 .402.134.725.402.969s.614.366 1.038.366zm-1.206.746v8.295h2.4v-8.295l-1.206.273-1.194-.273zM48.04 28.469c-.282-.215-.703-.323-1.265-.323h-.98v-1.854H48.2v-.324h-2.747v4.938h1.398c.518 0 .916-.123 1.193-.368.278-.246.417-.596.417-1.05 0-.465-.14-.804-.422-1.019zm-.268 1.864c-.212.18-.538.269-.977.269h-1V28.45h.933c.48 0 .826.08 1.04.24.214.16.321.425.321.796 0 .385-.106.667-.317.846zm1.925-.51c-.155.537-.358.806-.61.806a.624.624 0 01-.18-.02v.303c.064.018.14.028.227.028.243 0 .44-.11.594-.33.152-.22.277-.563.374-1.03.097-.467.18-1.145.246-2.034h1.288v3.36h.328v-3.671H50.05c-.08 1.189-.198 2.051-.353 2.588zm4.748-2.653c-.39 0-.785.095-1.185.284l.124.29c.361-.189.71-.283 1.047-.283.312 0 .539.089.68.267.14.177.21.44.21.79v.243l-.692.02c-.56.012-.988.116-1.283.314a.948.948 0 00-.444.835c0 .326.1.582.298.766.198.185.476.277.833.277.263 0 .491-.049.684-.147.193-.098.381-.265.564-.501h.027l.083.58h.245v-2.441c0-.444-.1-.77-.297-.98-.197-.209-.495-.314-.894-.314zm.863 2.23c0 .398-.112.71-.337.933-.224.224-.53.336-.918.336-.254 0-.451-.064-.59-.19-.14-.128-.21-.306-.21-.536 0-.288.11-.5.327-.637.217-.136.581-.216 1.092-.241l.636-.027v.361zm1.505 1.506h.33v-3.38h1.807v-.291h-2.138v3.67zm4.287-3.742c-.502 0-.896.167-1.184.501-.288.334-.432.801-.432 1.4 0 .38.065.716.194 1.006.13.29.316.514.56.669.242.155.523.233.842.233.506 0 .903-.168 1.191-.505.288-.337.432-.804.432-1.403 0-.59-.143-1.054-.427-1.393-.284-.339-.676-.508-1.176-.508zm.925 3.081c-.22.283-.53.424-.931.424-.402 0-.712-.141-.932-.424-.22-.282-.33-.676-.33-1.18 0-.509.109-.902.326-1.18.218-.278.527-.418.929-.418.401 0 .713.14.935.42.222.278.333.671.333 1.178 0 .504-.11.898-.33 1.18zm4.167-3.01h-1.75a6.964 6.964 0 01-.26 1.857 4.996 4.996 0 01-.703 1.496h-.24v1.564h.327v-1.246h2.784v1.246h.327v-1.564h-.485v-3.353zm-.33 3.353h-2.008c.53-.81.823-1.825.876-3.042h1.131v3.042zm1.918-3.353h-.33v3.67h.33v-3.67zm-.167-1.345c-.14 0-.21.109-.21.325 0 .218.07.327.21.327.07 0 .123-.029.162-.087a.428.428 0 00.059-.24.418.418 0 00-.059-.24.187.187 0 00-.162-.084zm1.681 4.691l.02-.692v-2.654H69v3.67h.432l2.157-3.346-.013.71v2.637h.318v-3.671h-.442l-2.158 3.346zm1.153-3.866c.664 0 1.02-.317 1.067-.95h-.294c-.027.241-.1.415-.22.52-.119.107-.301.16-.547.16-.247 0-.43-.052-.548-.154-.118-.103-.194-.278-.228-.525h-.294c.029.333.13.574.304.724.174.15.427.225.76.225zm5.306 2.131h-2.308v-1.611h-.332v3.67h.332v-1.769h2.308v1.77h.328v-3.671h-.328v1.61zm1.838 1.735l.02-.692v-2.654h-.314v3.67h.431l2.158-3.346-.013.71v2.637h.318v-3.671h-.442l-2.158 3.346zm4.724-4.291c-.118-.102-.194-.277-.228-.524h-.294c.029.333.13.574.304.724.174.15.428.225.76.225.664 0 1.02-.317 1.067-.95h-.294c-.027.241-.1.415-.22.52-.119.107-.301.16-.546.16-.248 0-.431-.052-.55-.154zm-.615 4.291l.02-.692v-2.654h-.314v3.67h.432l2.158-3.346-.014.71v2.637h.318v-3.671h-.441L81.7 30.58zm7.457-3.417V25.65h-.328v1.513c-.553.04-.98.226-1.284.557-.303.331-.455.78-.455 1.344 0 .574.154 1.028.462 1.361.307.333.733.516 1.277.547v1.594h.328v-1.594c.547-.04.971-.227 1.273-.56.302-.334.454-.783.454-1.348 0-.565-.15-1.013-.452-1.344-.301-.33-.726-.517-1.275-.557zm-.328 3.498c-.443-.033-.786-.188-1.028-.464s-.363-.653-.363-1.133c0-.475.117-.85.353-1.123.235-.273.581-.43 1.038-.467v3.188zm1.352-.479c-.236.281-.578.441-1.024.48v-3.189c.442.039.782.196 1.02.472.24.275.359.649.359 1.12 0 .463-.119.836-.355 1.117zm3.115-3.019c-.502 0-.897.167-1.185.501-.287.334-.431.801-.431 1.4 0 .38.064.716.194 1.006.13.29.315.514.558.669.243.155.525.233.843.233.507 0 .904-.168 1.191-.505.288-.337.432-.804.432-1.403 0-.59-.142-1.054-.426-1.393-.285-.339-.677-.508-1.176-.508zm.924 3.081c-.22.283-.53.424-.931.424-.402 0-.712-.141-.932-.424-.22-.282-.33-.676-.33-1.18 0-.509.11-.902.327-1.18.217-.278.527-.418.928-.418.402 0 .713.14.935.42.222.278.333.671.333 1.178 0 .504-.11.898-.33 1.18zm4.322-1.399h-2.308v-1.611h-.332v3.67h.332v-1.769h2.308v1.77h.328v-3.671h-.328v1.61zm4.029-1.611h-1.749a6.968 6.968 0 01-.261 1.857 5.026 5.026 0 01-.703 1.496h-.24v1.564h.327v-1.246h2.783v1.246h.328v-1.564h-.485v-3.353zm-.331 3.353h-2.007c.53-.81.823-1.825.876-3.042h1.131v3.042z"/></g><defs><clipPath id="clip0_363_739"><path fill="#fff" transform="translate(0 .5)" d="M0 0h154v41H0z"/></clipPath></defs></svg>