<svg width="314" height="131" fill="none" xmlns="http://www.w3.org/2000/svg"><path d="M108.679 11.267C116.769.48 91.322 1.994 86.895 2.17 60.587 3.211 35.025 12.924 14.24 29.207-1.314 41.39-13.24 65.132-9.21 85.012c6.67 32.903 54.338 38.407 80.344 41.325 50.058 5.616 99.145 1.897 148.706-6.151 16.882-2.742 33.714-7.025 50.038-12.109 12.357-3.849 25.526-8.318 35.238-17.235 7.526-6.91 8.444-13.717 4.101-23.193-8.442-18.418-34.497-24.687-52.025-29.92-29.808-8.902-62.522-10.726-93.349-12.879-30.818-2.153-60.252-.504-90.915 2.563" stroke="#C01F2F" stroke-width="3" stroke-linecap="round"/></svg>