<svg width="137" height="46" fill="none" xmlns="http://www.w3.org/2000/svg"><path fill-rule="evenodd" clip-rule="evenodd" d="M22.774 17.818c.563 2.03.625 3.88.625 3.88 1.752-2.387 3.599-4.536 5.945-6.356 2.565-1.97 4.349-3.163 7.634-4.566 2.91-1.253 4.318-1.612 5.757-2.058a58.318 58.318 0 014.443-1.164c1.533-.329 3.004-.597 3.004-.24 0 .24-1.72.836-1.971.956-1.19.507-2.315.894-4.82 2-3.002 1.342-5.192 2.863-7.727 4.863-2.284 1.79-4.474 4.238-6.414 6.714-.5.627-1.846 2.118-2.94 3.82-1.002 1.522-1.909 3.133-2.223 3.64-.563.985-1.657 3.223-1.657 3.223s1 .328 2.815.239c2.065-.12 3.661-.329 6.29-1.611 2.94-1.433 4.88-3.164 7.008-5.283 2.034-2.058 3.504-3.73 5.32-6.326 1.156-1.7 2.095-2.954 3.629-5.878.969-1.85 1.376-3.88 1.657-3.94.313-.089.408 1.85.126 3.552-.658 4.178-1.095 5.37-2.41 8.057-.938 1.97-2.346 4.028-4.349 5.967-2.065 2.03-3.785 3.433-6.507 5.133-1.972 1.223-3.348 1.85-5.508 2.417-2.408.657-5.224.538-6.289.448a14.28 14.28 0 01-2.753-.448c-.437.717-1.189 3.104-1.44 4.089-.25.984-.718 2.059-.968 2.476-.376.657-.908 1.134-1.377.955-.907-.298-1.377-1.104-1.564-2.178-.282-1.67-.064-3.431.156-4.417.282-1.401.845-3.163.845-3.163-.5-.476-2.034-1.91-3.786-4.983-1.407-2.447-2.503-5.73-2.473-8.982.031-3.461.813-6.803 2.44-9.936.782-1.523 1.44-2.418 2.003-3.283.595-.895 1.315-1.85 1.378-1.85.094 0 1.751 3.163 3.41 6.863 1.627 3.82 2.128 5.252 2.69 7.37zm4.286-9.4c-.813.569-.908.778-1.44 1.314-.562.567-.656 1.014-.562 1.76.031.179.156.597.25.777.406.626.97.925 1.658.925.407 0 1.158-.36 1.909-1.314.75-.954.907-1.313.907-1.76 0-.358-.094-.776-.563-1.254-.5-.566-1.564-.835-2.159-.447zm-10.48-3.58s-.409.895-.878 1.97c-.719 1.551-1.658 3.7-2.22 5.58-.751 2.596-1.284 6.415-.532 9.25.312 1.194.656 2.06 1.094 3.074.782 1.76 1.972 3.521 4.13 5.46 0 0 .72-.924 1.002-2.565.156-.955.156-1.194.219-1.97.093-1.194.093-2.477.125-3.94.062-1.908-.125-4.027-.626-6.893-.281-1.521-.781-4.267-1.158-5.818-.406-1.552-1.157-4.148-1.157-4.148zm66.923 34.167a8.429 8.429 0 01-5.663 2.208c-1.815 0-3.63-.626-5.068-1.7-1.877-1.433-2.91-3.461-2.91-5.76 0-2.029.814-3.879 2.346-5.282a8.354 8.354 0 015.632-2.208c2.065 0 4.161.806 5.665 2.208 1.532 1.403 2.315 3.283 2.315 5.283.004.981-.2 1.953-.598 2.856a7.222 7.222 0 01-1.719 2.395zm-1.752-5.281c0-2.328-1.626-4.178-3.91-4.178-2.316 0-3.912 1.85-3.912 4.178 0 2.357 1.534 4.177 3.911 4.177 2.316 0 3.911-1.85 3.911-4.177zm5.6-7.162h4.507c2.065 0 3.661.03 4.943.954 1.094.807 1.66 2 1.66 3.492 0 2.209-1.16 3.64-3.35 4.058l4.068 5.73h-4.6l-3.441-5.58v5.58H87.32V26.562h.03zm4.57 6.743c1.72 0 2.534-.506 2.534-1.76 0-1.492-.782-1.969-2.472-1.969h-.814v3.76h.752v-.031zm8.728 7.52V26.562h4.538c1.876 0 3.379.03 4.536.745 1.315.807 2.096 2.27 2.096 4.119 0 1.91-.719 3.312-2.064 4.058-1.034.568-2.159.627-3.567.627h-1.721v4.715h-3.818v-.001zm4.6-7.848c1.753 0 2.628-.328 2.628-1.7 0-1.373-.938-1.672-2.597-1.672h-.813v3.342h.781v.03h.001zm12.453 5.193c1.126 0 1.846-.627 1.846-1.463 0-1.133-.813-1.462-2.503-1.909-2.692-.687-4.005-1.701-4.005-3.94 0-2.655 2.033-4.624 5.162-4.624 1.66 0 3.129.418 4.444 1.282l-1.284 2.806c-.938-.746-1.939-1.135-2.879-1.135-1 0-1.657.509-1.657 1.194 0 1.015 1.032 1.224 2.378 1.582 2.659.686 4.13 1.611 4.13 4.237 0 2.984-2.222 5.013-5.726 5.013-2.096 0-3.692-.626-5.319-2.089l1.846-2.894c1.189 1.254 2.377 1.94 3.567 1.94zm-55.224-.27c-2.345 0-3.849-1.55-3.911-4.178.062-2.655 1.596-4.176 3.91-4.176 1.315 0 2.38.537 3.193 1.64l3.535-1.61c-1.533-2.178-3.817-3.283-6.727-3.283-4.6 0-7.979 3.133-7.979 7.46s3.38 7.46 7.979 7.46c2.91 0 5.195-1.103 6.727-3.281L65.67 36.32c-.814 1.044-1.846 1.581-3.192 1.581zm4.756-14.74v-9.34c-.219 1.253-.531 2.118-.689 2.686l-2.032 6.684H61.79l-2.034-6.684c-.156-.568-.469-1.402-.688-2.686v9.34h-3.817V8.896h5.162l2.252 7.37c.157.448.346 1.075.47 1.94a8.168 8.168 0 01.47-1.94l2.285-7.34h5.161V23.19h-3.817v-.03zm6.132-14.264h9.168v3.134H77.34v2.476h4.913v3.044H77.37v2.417h5.194v3.193h-9.167V8.896h-.03zm11.232 0h4.506c2.065 0 3.66.03 4.943.955 1.096.806 1.66 2 1.66 3.491 0 2.208-1.159 3.64-3.349 4.058l4.068 5.73h-4.6l-3.441-5.58v5.58h-3.817V8.897h.031-.001zm4.6 6.744c1.72 0 2.535-.507 2.535-1.76 0-1.492-.782-1.97-2.473-1.97h-.813v3.76h.75v-.03zm15.706 4.566c-2.345 0-3.848-1.552-3.911-4.177.063-2.657 1.596-4.178 3.911-4.178 1.315 0 2.379.537 3.192 1.64l3.536-1.611c-1.533-2.178-3.817-3.282-6.728-3.282-4.599 0-7.978 3.133-7.978 7.46s3.379 7.46 7.978 7.46c2.911 0 5.196-1.104 6.728-3.283l-3.536-1.61c-.844 1.044-1.876 1.581-3.192 1.581z" fill="#F4F4F6"/><path fill-rule="evenodd" clip-rule="evenodd" d="M112.54 23.43h4.6l9.01-14.565h-4.63l-2.69 4.329-3.223-4.328h-4.474l5.632 7.699-4.225 6.864z" fill="#F4F4F6"/></svg>