<svg width="102" height="60" fill="none" xmlns="http://www.w3.org/2000/svg"><path fill-rule="evenodd" clip-rule="evenodd" d="M63.026 25.156h-4.36c-2.765-.015-2.515-2.387-2.459-4.324.02-.725.25-1.272.602-1.693 1.122-1.338 3.922-.958 4.223 1.14.05.33.02.781.025 1.126 0 .573-.035.563-.25.897-1.035 0-2.616-.197-3.366.157 0 1.374.296 1.43 1.117 1.75l.113.05h4.187c-.005-.918-.138-5.165.081-5.627.194-.172.148-.157.49-.172.903-.046.841.416 1.443 1.835.143.33.194.684.449.862l.765-1.764c.102-.228.25-.695.413-.816.235-.178.867-.142 1.117-.03.178.38.178 6.153 0 6.528-.04.04-.785.253-.995-.076-.137-.218-.07-3.285-.07-3.68l-.281.537c-.403.983-.923 2.393-1.714.548-.117-.274-.347-.933-.55-1.085 0 4.166.346 3.842-.98 3.837zm27.81-3.097H87.64c0 1.551-.087 1.967-.923 2.752-.934.882-3.117.66-3.744-.887-.321-.78-.24-5.23-.092-5.378.27-.121.71-.121.985 0 .403.4-.306 4.36.403 5.226.27.33.83.563 1.407.33.984-.4.73-1.683.73-3.026 0-.624.004-1.252 0-1.881-.01-.674.05-.887 1.152-.649.066.826.082 1.673.082 2.61h2.131c-.448-.932-.158-2.159 1.102-2.655 1.137-.452 2.718.101 2.917.942l-.112.132c-.158.157-.383.35-.622.35-.332 0-.408-.289-.806-.416-.683-.218-1.545.097-1.5.832.072 1.176 2.382.39 3.209 1.713.525.851.392 2.722-1.265 3.148-.74.192-1.49.136-2.076-.153-1.846-.927-1.005-1.85-.515-1.85.464.127.688.69 1.152.887 1.403.588 2.433-1.003 1.362-1.672-.224-.142-1.566-.34-1.78-.355zm-13.29 3.097H74.18c-1.337.005-.98.324-.985-3.832-.535.613-.591 1.916-1.234 1.956-.637.036-.734-1.054-1.173-1.768l-.138-.193c.006.755.133 3.305-.076 3.756-.265.122-.724.122-.99 0-.244-.527-.07-4.871-.086-5.88-.005-.654.061-.765.745-.74.698.03.805.73 1.218 1.739.143.34.27.78.505 1.049l.76-1.855c.133-.305.21-.71.464-.847.128-.066.347-.096.582-.081.137.005.168 0 .29.04.174.067.215.072.225.188l.061 5.57h2.132c-.092-.395-.883-1.677.306-2.96.974-1.054 2.228-.633 2.973-.466 0-.643-.22-1.155-.867-1.343-.826-.238-1.158.284-1.841.284-.194-.294-.332-.4-.326-.897 1.06-.715 3.146-.938 3.998.755.367.74.27 1.546.27 2.59 0 .674.133 2.398-.081 2.854-.26.117-.536.117-.852.02-.255-.08.337-.228-.745.112-.892.278-1.066.005-1.77-.051zM52.602 14.963V28.09c0 .8 1.025.573 2.295.573H95.43c.495 0 .99-.005 1.48 0 .525.005.984.01.984-.492V15.206c0-.989-.78-.735-2.132-.735H55.06c-.862 0-2.458-.228-2.458.492zm3.856 26.257c0-.63.352-.503.984-.487 1.096.025.821.41.821-3.751 0-.553.143-.725-.403-.745-.75-.026-.913.228-.913-.482 0-.502-.015-.487.495-.487h2.545c.54 0 .658-.126.658.406 0 .887-.194.486-.995.568-.474.045-.321.294-.321.82v3.017c0 .628-.102.669.566.659.694-.005 1.622-.203 1.173.922-.918.112-3.075.05-4.12.05-.414 0-.49-.08-.49-.49zm17.314-.406h2.132c.433-.208 1.443.04 1.647-.163.01-.02.02-.065.02-.055l.062-4.03c-.097-.897-1.622.405-1.306-1.034.092-.416.857-.264 1.79-.264l1.627.016c.184.035.296.05.28.562-.02.735-.397.208-1.193.456-.142.046-.137.28-.142.426-.006.173.005.4.005.578l-.005 2.859c0 .056.005.188.01.238.005.026.005.046.01.066.066.335.398.269.887.264.362-.005.566-.036.821.08a.971.971 0 01.005.817c-.459.203-3.615.08-4.431.08h-3.203c-.444.041-.571.183-1.153.168-.954-.02-2.08-.684-2.295-1.47.821-1.237 1.05.264 2.004.456.766.163 1.357-.187 1.54-.689.577-1.602-1.718-1.14-2.62-1.744-1.765-1.186-.26-3.847 1.978-3.28.367.092 1.805.655 1.02 1.243-.47.35-.556.09-.857-.092-1.178-.72-2.234.38-1.693 1.105.515.695 2.142.163 2.948 1.237.474.634.47 1.445.112 2.17zm-6.487-4.481c.449.846.24 5.185.234 5.2-.086.234-.372.234-.698.148-.367-.097-.143-.208-.633-.01-3.055 1.231-4.61-2.94-2.045-4.142 1.52-.715 2.912.74 2.188-.74a1.206 1.206 0 00-1.096-.715c-.704-.025-.985.294-1.474.335-.316-.355-.327-.355-.332-.816 1.398-.725 3.07-.76 3.856.74zm-14.601-4.74v13.62c.703.487.805.33 2.131.33H82.06c2.947 0 2.79.38 2.79-2.119v-9.869c0-2.767.076-2.28-2.709-2.28-9.445 0-19.048.06-28.478-.006-.724-.005-.566.05-.98.325z" fill="#F4F4F6"/><path fill-rule="evenodd" clip-rule="evenodd" d="M63.925 39.835c.102.553.725 1.207 1.54 1.045.541-.107 1.117-.73.99-1.516-.286-1.744-2.846-1.191-2.53.471zM78.117 21.81c-.265.112-.5.274-.642.583-.434.913.285 2.099 1.504 1.739.561-.167.944-.913.72-1.602a1.126 1.126 0 00-.562-.674 1.246 1.246 0 00-.836-.112l-.128.041-.056.025zM57.44 20.589c0 .887-.148.73 1.968.735.378 0 .464-.076.495-.416.056-.563-.367-1.465-1.316-1.46h-.081c-.51 0-1.066.629-1.066 1.14zm1.224 4.567h4.36c-.24-.36-.173-.34-.168-.897H58.67l-.005.897zm15.516 0h3.366c-.373-.314-.48-.198-.954-.765-.015-.016-.066-.051-.076-.087-.006-.025-.026-.03-.036-.045h-2.132c-.005.562.076.537-.168.897zm13.457-3.097h3.197l-.622-.36c-.22-.162-.306-.34-.444-.542h-2.131v.902zM72.79 41.71h3.202c-.189-.273-.27-.516-.087-.897h-2.132c-.484.7-.632.593-.984.898zm-51.045-5.317c.847 0 .928 1.541-.158 1.475-1-.06-.928-1.47-.005-1.475h.163zm7.283-.841c1.392-.203 2.81.537 3.438 1.364 1.713 2.255.566 5.555-1.199 6.898a5.128 5.128 0 01-3.87.994c-2.658-.386-4.04-2.246-2.98-4.861.149-.355.256-.512.393-.837.592-1.378.153-2.615.25-3.254.062-.395.133-.68.138-1.09 1.086.75.775 1.227 3.83.786zm4.702-14.816c0 .466.556 3.147.689 3.801l.642 3.645c0 .015-.01.04-.02.056-.092-.406-1.581-3.412-1.816-3.985-.204-.496-1.086-2.503-1.484-2.93-1.127-1.2-3.401-.238-3.259 1.602.051.593.24.979.429 1.455l2.53 6.468c.066.228.056.218-.01.325-.18-.665-1.082-.806-1.873-.634-1.157.253-3.835 1.226-4.421 2.291-.25.441-.189.573-.189 1.196-2.203 1.196-2.973.639-4.269 1.551-1.494 1.044-3.003 3.371-3.513 5.236-.867 3.184.066 6.504 1.754 9.236.53.851 1.193 1.82 1.907 2.514.158.157.214.238.347.385l1.168 1.044c1.54 1.252 2.882 1.87 4.789 2.494.796.264 1.535.355 2.468.482 2.58.355 6.192-.558 8.502-1.551 2.183-.933 2.642-1.359 4.3-2.737.361-.3.525-.558.825-.892 1.587-1.77 2.438-3.422 2.994-5.835.169-.74.398-2.29.393-3.198-.03-4.694-.28-5.424-1.627-9.722-.372-1.192-1.606-6.666-1.872-7.847l-1.07-4.232c-.194-.457-.73-.872-.929-.872-2.438 0-1.861 1.54-1.81 3.675l.331 4.967c-.158-.243-1.78-6.909-1.836-7.142-.28-1.095-.484-2.727-1.617-2.879-.765-.101-1.417.091-1.815.385-.602.451-.643.674-.638 1.648zM7.629 43.246c2.198.005 4.57-1.17 6.12-2.402 1.346-1.065 3.07-3.802 3.07-5.429-3.254.01-6.68 1.673-8.206 4.567-.423.796-.974 2.063-.984 3.264zm2.051-10.36c.663.41 2.672.582 3.452.648 1.505.127 3.621-.46 4.947-1.19.964-.533 2.938-2.114 3.173-2.966-.46-.39-2.979-.811-3.448-.811-2.484 0-4.396.375-6.171 1.936-.617.543-1.775 1.602-1.953 2.383zm6.65-9.707c-.224-2.362-1.152-4.841-2.442-6.134-.811-.816-1.352-1.338-2.454-1.885-.81-.396-2.244-.938-3.391-.948.025 1.622 1.29 4.699 2.601 5.976 2.055 2.002 3.009 2.388 5.687 2.99zm3.609 3.756c.586-.684 1.111-1.86 1.458-2.717.923-2.311.77-4.638-.224-6.909-.27-.613-1.306-2.114-1.806-2.448-1 1.145-2.065 4.516-1.876 6.27.142 1.343.3 2.245.78 3.305.362.806 1.025 2.078 1.668 2.499zm1.477-23.981h-.245a15.003 15.003 0 00-1.142 2.864c-.918 3.198-.061 6.128 1.892 8.627.184.238.235.42.566.497 1.658-3.117 2.606-6.052.735-9.62-.745-1.425-1.485-1.902-1.806-2.368zM4.102 25.79v.167c2.87 1.87 6.268 2.64 9.618 1.318.678-.27 2.188-1.055 2.53-1.567-.449-.238-.796-.517-1.26-.79a10.417 10.417 0 00-2.958-1.217c-1.188-.294-2.479-.35-3.713-.076-1.423.31-2.524.816-3.646 1.673-.225.172-.347.344-.571.491z" fill="#F4F4F6"/><path fill-rule="evenodd" clip-rule="evenodd" d="M22.811 25.303a8.68 8.68 0 001.148 4.318c.505-.131 1.627-1.652 1.984-2.18.55-.815 1.076-1.809 1.33-2.919.276-1.196.307-2.59.057-3.796-.265-1.288-.71-2.023-1.24-3.006-.591.157-2.075 2.57-2.35 3.122a9.924 9.924 0 00-.735 2.048l-.255 2.088c0 .421.061-.076.061.325z" fill="#F4F4F6"/></svg>