<svg width="115" height="56" fill="none" xmlns="http://www.w3.org/2000/svg"><g clip-path="url(#clip0_413_2688)" fill-rule="evenodd" clip-rule="evenodd" fill="#F4F4F6"><path d="M29.247 5.27v.947c1.16 0 2.327.401 2.688 1.375.12.325.19.703.19 1.118v9.57c0 1.79-1.01 2.692-2.931 2.692-.277.386-.107.32-.107 1.047h7.624c.236 0 .213-.484.213-.698 0-.56-.609-.237-1.582-.664-1.487-.652-1.563-1.45-1.563-2.825l.001-5.884c0-.257-.043-.316-.054-.5l.051-3.687c-.004-.264-.053-.336.108-.447.024.271.228.664.314.903.48 1.353 1.22 3.097 1.76 4.486.236.612.467 1.198.721 1.817.5 1.217.943 2.407 1.41 3.617l1.187 3.178c.179.522-.074.404 1.646.404.172 0 .218-.202.275-.34l2.878-6.88c.992-2.304 1.944-4.723 2.961-7.05l.104-.203c.004-.007.012-.021.02-.031v10.268c-.01 2.188.587 3.091-1.79 3.411-.325.044-.701.106-.983.128v.947c1.003 0 1.82.05 2.826.05.762 0 5.052.035 5.612-.037 1.38-.177 1.394.488 1.266-.96-.227-.018-.504-.088-.77-.128a5.37 5.37 0 01-.784-.164c-.457-.143-.899-.4-.899-.954V7.364c0-1 1.65-1.147 2.453-1.147.005-.217.053-.187.053-.548 0-.25-.048-.223-.053-.448H47.16c-.418 0-.606.05-1.012.05l-.927 2.822c-.886 2.484-2.034 4.842-3.065 7.253-.096.227-.214.452-.274.691-.18-.123-.21-.392-.304-.613-.61-1.442-1.243-3.19-1.859-4.692l-1.856-4.695c-.08-.215-.228-.513-.246-.716l-1.063-.053a20.773 20.773 0 00-1.042-.047H31.22c-.725 0-1.252.05-1.972.05zM9.738 23.837v-.473c-.312 0-.364-.044-.638-.051a14.249 14.249 0 00-.748.005l-8.385.014-.006 17.835c1.661.006 3.209.049 4.872.049 1.668 0 3.216-.046 4.868-.049l.037-17.33zm76.452-1.519c2.328 0 3.944-.366 5.34-1.987.164-.191.341-.385.482-.595.14-.208.365-.505.416-.708-.24-.334-.607-.477-.96-.698-.412.729-.779 1.289-1.595 1.748-1.659.932-3.728.678-4.714-.984-.894-1.509-.782-2.436-.782-4.054 0-.973.329-2.45.852-3.19.497-.704 1.442-1.042 2.15-.914 1.528.277-.307 1.69.266 2.894.693 1.46 3.86 1.41 4.238-.097.146-.583.142-1.337-.165-1.867-.097-.166-.255-.344-.303-.514 1.571.777 1.47 1.518 2.345 3.14l3.822 7.194c.33.617.345.62.21.91-.655 1.404-1.56 2.096-1.739 2.413-.418-.262-.706-.748-1.111-1.055-1.891-1.429-3.634-.11-3.634.906 0 .783.057 1.364.895 1.855.57.334 1.474.65 2.18.471 1.41-.358 1.98-.627 3.04-1.843.943-1.084 2.025-3.17 2.591-4.407l1.691-3.552c.089-.186.18-.375.284-.583l.568-1.163c.465-.969 1.43-3.334 2.173-3.95.379-.314.73-.413 1.293-.536.03-.12.046-.21.053-.283V10.7c-.014-.121-.053-.211-.053-.446h-5.118c-.165 0-.135.058-.167.193-.043.176-.08.472.027.636.107.163.462.158.93.277.169.043.409.124.567.217.707.415.153 1.255-.202 2-.426.893-.868 2.04-1.297 2.875l-.658 1.428c-.135-.092-.736-1.327-.835-1.511-.285-.532-.548-.976-.835-1.513-.303-.564-1.476-2.67-1.476-3.206 0-.213.814-.428 1.125-.444.563-.03.453.005.368-.952h-7.784v.498c-1.717-.85-3.258-1.012-5.24-.712-1.26.19-2.57.716-3.516 1.498-1.15.95-2.122 2.335-2.227 4.248a6.74 6.74 0 00.056 1.394c.065.44.196.882.338 1.28.258.725.665 1.49 1.219 2.05l.924.73c1.053.685 2.555 1.077 3.968 1.077zM18 23.314V41.16c.163.003.37.037.577.059.685.073 7.599.075 8.236.006.243-.026.464.051.464-.165V23.314c-.616 0-1.032-.05-1.653-.05h-5.971c-.621 0-1.038.05-1.653.05zm29.164-.199c-.333 1.338.217.764 1.181 1.089a1.51 1.51 0 011.059 1.453v13.458c0 .218-.05.421-.146.562-.104.152-.234.227-.423.302-.264.105-.968.207-1.297.233v.847c.615 0 1.031.05 1.652.05h6.078c0-.689.281-.86-.339-.979-.498-.095-1.26-.325-1.26-.915v-6.73c0-.225.653-.776.905-.947.803-.545 2.53-.871 3.198.152.225.345.375.848.375 1.394v6.23c0 .742-.832.843-1.546.898v.847c.615 0 1.031.05 1.653.05h5.971c0-.391.212-.843-.16-.948-.446-.125-1.633-.104-1.655-1.093-.029-1.283.079-4.44 0-5.334-.113-1.274-.024-2.366-.872-3.422-1.411-1.756-4.903-1.72-6.923-.032l-.946.76c0-2.425-.014-4.853 0-7.277.006-.976-.146-1.022-.876-.918l-5.629.27zM29.57 32.337c0 1.885.054 2.694.807 4.43.793 1.828 2.677 3.427 4.678 4.1.724.243 1.877.538 2.727.59 1.074.065.547.16 1.806.047.199-.018.495-.035.73-.066.861-.113 1.741-.31 2.51-.644a7.032 7.032 0 001.016-.545c.322-.218.606-.412.881-.672.612-.579.96-.938 1.436-1.648.803-1.196.811-1.06-.49-1.705-.308.43-.818 1.23-1.212 1.609-.357.343-.466.504-.912.842-1.278.969-3.09 1.475-4.85 1.03-.437-.111-.704-.243-1.094-.423a3.773 3.773 0 01-1.585-1.36c-.4-.624-.69-1.163-.934-1.967-.687-2.255-.552-6.517.582-8.636.335-.627.71-1.086 1.284-1.491.95-.671 1.69-.719 2.803-.719.752 0 1.643.308 2.08.598.593.393.907.742 1.341 1.288.532.67 1.032 1.761 1.347 2.53l.35.967c.394.086.544.05 1.013.05.201 0 .207-.316.216-.596a4.37 4.37 0 00-.041-.763l-.068-4.822-1.013-.05c-.504 0-.646.776-1.118.604-.36-.13-.75-.349-1.342-.547-1.623-.543-3.608-.626-5.364-.294-1.182.225-2.386.621-3.373 1.234-.553.344-1.543.992-1.908 1.505-.262.37-.567.664-.981 1.277-.153.227-.262.473-.398.724-.438.813-.924 2.327-.924 3.523zM-.074 15.539c0 .303.053.363.053.648h9.757l.053-5.832c0-1.7-.053-3.236-.053-4.935a1.344 1.344 0 00-.534-.1H-.074v10.22zM17.998 5.42v9.371l-.002.7c0 .3.055.361.055.646.72 0 1.248.05 1.973.05h7.09c.124 0 .16-.035.16-.15V5.37c-.475 0-.74-.05-1.226-.05h-7.517c-.208 0-.396.039-.533.1z"/><path d="M79.366 29.396h-2.4c-.197 0-.174.218-.207.607-.013.154.067.601.101.738h2.506v8.374c0 .563-.213.745-.646.892-.764.26-1.145-.006-1.224.4-.12.619-.01.826.677.779.511-.036 1.068-.078 1.566-.077.921.003 4.864.044 5.713-.042.73-.074.685.255.685-.705 0-.466-1.811-.105-2.326-.817-.216-.3-.234-.79-.235-1.278 0-.319.053-.408.057-.695l-.002-6.83h3.412l.053-.798c0-.277-.053-.296-.053-.548h-2.879c-.296 0-.316-.05-.586-.05 0-.318.056-.416.054-.747-.002-.588-.038-1.935.03-2.365.122-.782.064-1.791 1.035-2.272.063.123.126.277.19.42.25.556.33.76.685 1.304.328.502.974 1.068 1.63 1.068.704 0 1.234-.01 1.723-.484 1.051-1.021.867-3.42-2.203-3.453-.257-.003-.313-.048-.509-.03-.737.068-.681-.003-1.628.174-.695.129-2.073.54-2.567.989-.15.135-.152.13-.328.241-.502.318-1.046 1.08-1.348 1.581-.538.891-.976 2.256-.976 3.624zM58.52 14.692c0-1.175-.067-1.757.532-2.842.792-1.434 2.482-1.226 2.98.056.296.761.326 1.842.326 2.736l-3.838.05zm-4.692 1.445c0 1.599.686 3.597 1.988 4.62 2.351 1.849 6.481 2.25 9.017.684.584-.36 2.2-1.6 2.377-2.313-.157-.219-.704-.522-.96-.648-.346.483-.188.3-.626.71-1.224 1.144-1.595 1.383-3.479 1.383-1.91 0-3.124-1.223-3.48-2.877-.143-.666-.14-1.256-.199-1.908.634 0 7.076.037 7.54-.029.989-.14.937.34.937-.719 0-1.728-.65-3.072-1.668-3.873-.436-.344-1.371-.809-1.914-.952-2.958-.777-6.357-.174-8.323 2.268-.792.985-1.21 2.412-1.21 3.654z"/><path d="M70.355 33.782h-1.493c0-1.481.148-3.788 2.186-3.788.99 0 1.41 1.1 1.561 1.83.03.144.056.476.077.626l.068 1.282c-.862 0-1.534.05-2.4.05zm1.013 7.726c1.295 0 2.739-.381 3.836-.999.73-.41 1.43-.978 1.945-1.62.153-.191.434-.468.457-.72-.247-.062-.608-.398-1.013-.598a1.62 1.62 0 01-.306.412c-.338.35-.749.837-1.164 1.104-1.105.712-2.844.82-4.16.308-1.355-.528-2.101-2.27-2.101-3.669v-.847h8.424c0-.47.136-.298-.017-1.131-.174-.958-.174-1.71-.881-2.665-.173-.233-.465-.575-.694-.748-1.31-.983-2.85-1.338-4.593-1.338-.91 0-2.027.22-2.85.526-1.061.398-1.793.946-2.522 1.679-.673.676-1.19 1.767-1.386 2.692-.07.332-.194 1.116-.144 1.453.075.505.022.803.183 1.427.289 1.111.891 2.431 1.836 3.119 1.088.792 2.165 1.234 3.557 1.46.268.043.48.038.77.077.22.029.629.078.823.078zm24.525-2.742v.3c0 .803-1.07 1.345-1.972 1.345-1.088 0-1.915-.145-2.757-.812-.206-.163-.392-.291-.549-.484-.646-.794-.734-.777-1.28-1.794-.07-.13-.097-.203-.163-.346-.134-.29-.325-.202-1.063-.202l.105 2.345c.035.397-.035.832-.003 1.095.153 1.216-.22 1.046.858 1.046.427 0 .256-.261.64-.798.585.29 1.164.547 1.897.719.499.116 1.803.328 2.315.328.394 0 2.197-.3 2.57-.388 1.51-.358 2.705-1.245 3.082-2.702.21-.81.185-1.654-.114-2.387-.844-2.07-3.797-2.32-5.744-3.003-2.306-.81-1.402-2.885.099-2.885 1.098 0 1.2-.078 2.187.398.446.216.462.296.746.5.207.147.463.458.625.66.948 1.188.383 1.433 1.4 1.433.163 0 .215-.048.32-.1-.005-.216-.047-.203-.055-.447-.005-.18.01-.371.004-.551-.008-.239-.043-.228-.055-.447-.044-.77-.035-1.788-.107-2.592-.982 0-1.069-.148-1.28.698-.44-.097-.83-.31-1.728-.478-1.203-.225-2.165-.298-3.351-.085-.389.07-.84.155-1.165.257-.91.285-1.59.672-2.157 1.373-.57.704-.844 1.736-.667 2.576.425 2.012 1.702 2.638 3.783 3.292 1.283.403 3.58.596 3.58 2.136zM73.553 11.9l.001-.948c.001-.171.004-.265-.028-.422-.055-.27-.08-.19-.133-.374l-2.346.05c-.267.013-.406.05-.748.048-.33-.001-.412.054-.743.052l-1.533.063a5.78 5.78 0 01-.761.036c-.164.32-.054.431-.054.947.678 0 1.257.069 1.623.576.538.745.62 2.328.502 3.304-.078.651-.058 2.541.005 3.25.035.39-.024 1.633-.161 1.987-.212.546-1.212.591-1.755.602-.087.976-.433.997.746.998.431 0 .697-.051 1.064-.052l6.613.002c.106-.207.107-.401.107-.648 0-.62-.995-.103-2.026-.698-.145-.084-.373-.332-.373-.548v-6.929c0-.194.711-.692.895-.808.294-.186.833-.428 1.29-.438-.025.29-.226.754-.2 1.034.064.695.452 1.236 1.106 1.509.66.275 1.379.32 2.027.05 1.708-.715 1.555-3.088.468-4.027-1.101-.953-2.972-.508-4.093.188-1.14.707-1.307 1.068-1.493 1.196zM38.208 48.835c.014-.149.067-.293.094-.41l.184-.825c.03-.148.014-.31.202-.31h2.186c.782 0 .693.513.693.748 0 .478-.658.795-1.224.8-.71.005-1.424-.003-2.135-.003zm2.56-2.243H38.74c.006-.211.082-.454.13-.676.047-.227.132-.46.137-.67h2.346c.82 0 .765 1.346-.587 1.346zm-3.573 2.941c1.15 0 2.459.085 3.517-.051 1.78-.23 2.297-2.036 1.175-2.59.303-.388.853-.354.853-1.546 0-.762-1.2-.797-1.76-.797h-2.665c-.042.477-1.07 4.417-1.12 4.984zm41.475-3.489v.25c0 1.38 3.175.831 3.385 1.622.084.318-.19.63-.407.762-.34.206-.502.209-.99.273-.717.094-1.668-.092-1.668-.813v-.3h-.907c0 .386-.079.685.105 1.05.366.726 1.551.825 2.353.75 1.2-.112 2.448-.624 2.448-1.9 0-1.553-3.413-.686-3.413-1.843 0-.836 2.353-1.123 2.74-.318.074.154.086.259.086.467.966 0 .853.089.853-.399 0-1.993-4.585-1.406-4.585.4zm-47.128 2.841c-1.3 0-1.495-1.246-.709-2.008.972-.942 3.1-.516 2.292 1.096l-.361.46a1.992 1.992 0 01-1.222.452zm-.102 1.895h-.858c-1.175 0-1.57-1.147-1.12-1.147 1.358 0 .482.084.958.4.286.191.755.148 1.122.148.778 0 1.318-.578 1.332-1.196-.404.253-.982.548-1.652.548-.631 0-1.35-.305-1.58-.865a1.892 1.892 0 01-.126-.63c0-1.616 2.101-2.782 3.503-2.129.297.14.279.2.495.334.23-.447-.222-.448.853-.448 0 .323-.09.565-.147.81-.064.28-.106.525-.172.785-.227.886-.374 2.354-1.004 2.85-.537.422-1.044.52-1.604.54zm41.101-1.795c-1.935 0-1.232-2.592.48-2.592.723 0 1.28.182 1.28.997 0 .873-.82 1.595-1.76 1.595zm1.973-2.692c-.175-.11-.577-.548-1.12-.548-.726 0-1.142.01-1.79.47a3.685 3.685 0 00-.35.27c-1.676 1.719-.27 3.801 1.937 2.958.26-.1.448-.242.683-.358-.036.145-.07.304-.107.448h.8c.044-.176 1.12-4.713 1.12-4.984h-.8l-.182.876c-.064.268-.168.609-.191.868zm-55.287 2.692c-.602 0-1.173-.332-1.173-.798v-.398c0-.654.834-1.396 1.546-1.396.386 0 .718-.03 1.029.234.744.634.107 2.358-1.402 2.358zm1.919-2.742c-.748-.468-.614-.498-1.546-.498-1.73 0-3.066 2.179-2.143 3.25.83.962 2.068.704 3.05.09-.018.192-.054.196-.054.448.995 0 .709.198 1.035-1.175l.585-2.543c.055-.223.088-.417.14-.618.041-.165.095-.524.16-.648h-.854c0 .2-.311 1.574-.373 1.694zm29.002 2.742c-1.884 0-1.159-2.592.427-2.592h.373c.44 0 .96.358.96.748 0 .523-.037 1.025-.547 1.432a2.076 2.076 0 01-1.213.412zm2.026-2.742c-.48-.12-.243-.498-1.6-.498-.619 0-1.29.382-1.613.685-1.887 1.769-.171 4.34 2.52 2.655-.005.225-.053.198-.053.448h.8l.83-3.71c.108-.452.184-.85.29-1.274-.111 0-.676-.012-.737.01-.177.06-.092.006-.136.22l-.3 1.464zm10.075 2.742c-.49 0-1.013.089-1.013-.449 0-.601 1.03-.54 1.79-.669.245-.041.492-.11.716-.128 0 .722-.72 1.246-1.493 1.246zm-1.386-1.894h.8c.345-.674.498-.748 1.546-.748.442 0 .746.106.746.449 0 .948-3.572.163-3.572 1.794v.3c0 .764 1.588 1.02 2.717.396.13-.07.21-.156.375-.197.2.39.171.498.8.498.462 0 .48-.178.48-.598-.638 0-.445-.13-.21-1.242.367-1.723.432-1.998-1.816-1.998-.838 0-1.669.555-1.866 1.346zm-51.445-.748c.31 0 .559.061.782.217.257.18.338.438.338.73H7.82c.29-.513.76-.947 1.6-.947zM6.86 47.988v.25c0 1.75 2.77 1.724 3.824.633.177-.183.34-.34.388-.534h-.852c-.569 1.004-2.56.776-2.56-.1v-.299h3.466c.32 0 .252-1.014.07-1.412-.189-.415-.735-.78-1.35-.78-.89 0-1.454.072-2.2.684-.386.318-.786 1.028-.786 1.558zm7.62-1.645c.702 0 1.226.269 1.226.947h-2.719c.166-.293.253-.44.547-.635.241-.16.553-.312.946-.312zm-2.453 1.595c0 .503-.006.99.532 1.348.78.519 1.999.42 2.786-.04.257-.151.815-.632.894-.91h-.853c-.472.66-.9.65-1.6.65-.622 0-.998-.465-1.012-1.048h3.518c.361 0 .493-2.193-1.28-2.193-.876 0-1.5.06-2.2.684-.345.308-.785.906-.785 1.51zm-9.914 1.595h.853c.07-.135.48-1.923.48-2.143H6.22c.24 0 .226-.374.32-.748H3.66c.008-.322.267-.989.267-1.345h3.199c.198 0 .153-.131.195-.317.04-.175.072-.233.072-.431h-4.16c0 .256-.069.392-.12.635l-1 4.35zm83.703-.548c-.495 0-.79.053-1.15-.27-.678-.608-.147-2.372 1.577-2.372.592 0 1.12.357 1.12.897 0 .523-.064.86-.492 1.286-.198.197-.669.46-1.055.46zm-2.293-.897c0 2.014 3.323 1.994 4.371.298.74-1.198.191-2.64-1.332-2.64-.904 0-1.545.072-2.253.733-.457.428-.786.943-.786 1.609zm-38.176.897c-.903 0-1.44-.072-1.44-1.097 0-1.715 2.987-2.149 2.987-.548 0 .611-.415 1.21-.905 1.447-.176.086-.378.198-.642.198zm-2.292-1.047c0 .542.023.948.6 1.334 1.445.968 4.092-.073 4.092-2.032 0-.84-.762-1.495-1.653-1.495-1.027 0-1.381.063-2.217.669-.372.269-.822.93-.822 1.524zm10.185 2.143c-.022.237-.107.377-.107.648.506 0 1.33.289 2.09-.786.336-.474.64-.9.98-1.377.66-.924 1.29-1.813 1.941-2.721h-.96c-.041.167-.111.229-.202.358-.094.134-.147.228-.245.37l-1.471 2.163-.476-2.148c-.052-.243-.143-.5-.165-.743h-.96l.886 3.26c.074.274.28.754-.502.987-.249.073-.495-.01-.81-.01zm35.455-1.445c0 1.078 1.665 1.264 2.657.639.15-.094.165-.15.329-.19-.015.164-.07.298-.107.448h.853c0-.264.492-2.315.597-2.731.05-.197.198-.75.203-.957h-.8c-.171.687-.325 1.391-.483 2.09-.266 1.18-2.342 1.37-2.342.551 0-.4.014-.435.106-.797l.427-1.844h-.853c0 .38-.587 2.411-.587 2.791zm-21.86-2.343c.036-.144.07-.303.107-.448h-.8l-.853 3.688c1 0 .82.023.872-.23.015-.072.029-.179.057-.297.13-.554.298-1.796.682-2.154.677-.63 2.068-.633 2.068.04l-.416 1.953c-.06.24-.118.405-.118.688h.8c.012-.514.587-2.274.587-2.89 0-.844-1.003-.898-1.6-.898-.573 0-1.037.33-1.386.548zm-40.946-.05c0-.238.036-.207.053-.399h-.8c-.303 1.216-.55 2.475-.853 3.689h.8l.458-1.914c.075-.308.158-.602.409-.815.485-.41 1.521-.596 1.878-.237.239.24.1.688.027.972l-.426 1.994h.8l.35-1.566c.212-1.01.774-2.222-1.205-2.224-.937 0-1.145.414-1.491.5zm67.658 3.29h.8c.203-.815.365-1.628.564-2.463.103-.434.19-.84.275-1.238l.28-1.283h-.8l-1.12 4.984zm-71.176 0h.8c.262-1.052.499-2.359.77-3.372.113-.428.145-.366-.61-.366-.206 0-.245.473-.325.842l-.635 2.896zM9.736 23.838l-.037 17.33c-1.653.003-3.2.048-4.868.048-1.664 0-3.211-.042-4.872-.049l.006-17.835 8.384-.014c-.142-.09-.788-.053-1.013-.053h-5.33c-.743 0-1.316.05-2.08.05v17.894c1.205 0 2.28.05 3.519.05H7.87c.374.003.508-.051.85-.052 1.046-.001 1.06.1 1.076-.24.006-.133-.007-.316-.007-.456V30.492c0-2.276-.053-4.405-.053-6.654zm13.596 21.508h.8c.025-.28.153-.522.16-.797h-.8c-.055.22-.16.552-.16.797z"/></g><defs><clipPath id="clip0_413_2688"><path fill="#fff" d="M0 0h115v56H0z"/></clipPath></defs></svg>