<svg width="60" height="58" fill="none" xmlns="http://www.w3.org/2000/svg"><g clip-path="url(#clip0_413_2621)" fill="#F4F4F6"><path d="M26.064 32.85c-2.022 2.152-3.872 5.233-4.256 8.219-.16 1.249-.103 1.394-.013 2.578.189 2.467 1.722 5.153 3.11 7.033.539.728 1.167 1.541 1.817 2.23.383.407 1.709 1.79 2.058 2.02.422.118.098.053.218-.058l-.07-.309c-.002-.211-.187-.662-.276-.906-.829-2.266-.279-4.629.63-6.696.473-1.077.945-1.911 1.454-2.848 2.278-4.193 7.01-7.142 8.63-11.53 1.679-4.543 1.361-10.295-1.835-14.115-.225-.27-.659-.562-.763-.874l11.436-.012.01-2.007c-.507-.137-14.445-.07-15.072-.046.35 3 1.02 3.526.374 6.88-.888 4.613-4.34 7.128-7.452 10.44z"/><path d="M11.293 15.6l.013 1.98 17.363.018c.373 5.874-9.895 9.286-10.628 16.854-.309 3.192.144 6.155 2.203 8.694l.677.769c.078.08.034.024.098.102.122.15.056.056.084.134l.138-.005c-.06-.181-.116-.257-.177-.455l-.412-1.552c-.583-3.588.798-7.156 2.94-9.873C30.117 24 30.78 26.926 30.78 12.96c0-4.258.041-8.536-.001-12.791h-2.035c-.075 2.526-.008 5.152-.008 7.688 0 .102.076 7.504-.063 7.63-.274.25-16.626-.1-17.379.114zm15.728 40.722c.571-.048 1.444.315 1.927.288l-.237-.156c-.018-.01-.039-.029-.054-.038-.015-.01-.036-.028-.055-.04-3.623-1.367-9.447-2.286-13.848-2.307a52.452 52.452 0 00-7.597.496c-1.059.148-5.898 1.044-6.575 1.464.085.119 2.089 1.43 2.384 1.587.326.174.982-.255 1.364-.407.478-.19.904-.322 1.433-.503.94-.32 2.064-.618 3.12-.81 3.924-.714 7.103-.718 11.133-.5 1.921.103 4.264.45 6.22.73.166.025.237.051.38.08l.405.116zm3.475.168c-.004.133-.09.058.096.116.46.016 1.157-.318 1.663-.217.115-.107-.097-.017.185-.114.098-.034.195-.034.3-.05.97-.144 3.18-.598 3.925-.514.01-.01.03-.02.038-.023l.336-.07c.834-.072 1.871-.218 2.708-.233 1.142-.02 2.017-.12 3.185-.12 2.084 0 4.418.084 6.316.41 1.978.34 3.611.677 5.371 1.326 2.025.745 1.467.89 2.327.349l1.877-1.216c.076-.067.048-.043.093-.105-.636-.377-5.702-1.388-6.706-1.481-1.235-.114-2.505-.34-3.739-.37-3.993-.096-7.505-.212-11.53.648-1.955.418-3.077.626-4.997 1.175-.42.12-1.126.436-1.448.49zM5.233 50.258l-.036-.043c.422.117.234.22.758.211l2.555-.111c1.064-.084 2.226 0 3.333.038 1.34.046 3.895.41 5.274.7.291.06.473.107.75.158 2.374.436 5.433 1.666 7.585 2.748l2.206 1.273.231.023-.092-.257c-.533-.75-4.162-2.808-5.456-3.37-.184-.08-1.948-.784-2.11-.934-.282.006-1.252-.368-1.577-.471-2.711-.86-6.018-1.33-8.818-1.337-.693-.001-1.385 0-2.077.008-.667.008-1.29.125-1.867.114.072-.285.367-.434.617-.672l4.55-4.317c.037-.22.044-.108-.068-.142-1.4 1.155-3.766 2.768-5.348 4.017-.249.197-1.604 1.07-1.725 1.399l1.008.672c.253.153.216.133.307.293z"/><path d="M31.787 55.484c-.216.244-.204.179-.526.375l-.491.359c.272-.06.907-.41 1.227-.545.438-.184.816-.365 1.234-.534 2.067-.833 6.453-1.956 8.735-2.085 3.357-.19 3.368-.294 6.922-.117 1.42.07 3.295.374 4.766.607.526.083 1.08.28 1.653.251.069-.101.29-.3.493-.284.207-.286.504-.398.876-.647.162-.109.716-.387.776-.577-.497-.267-5.95-.682-6.9-.695a105.556 105.556 0 00-3.808.007c-2.286.051-4.532.41-6.75.853a26.53 26.53 0 00-3.016.79c-.841.272-4.801 1.712-5.19 2.242zM2.834 52.935c.165.021.188.041.33.136.006.003.109.083.109.083.084.07.076.072.086.083.492.199.73.646 1.335.544 1.936-.324 2.67-.578 4.936-.742 2.452-.177 4.717-.338 7.252-.04 3.644.43 7.337 1.117 10.59 2.645.277.13 1.11.558 1.295.58.193-.085-.006-.077-.629-.408a6.644 6.644 0 01-.046-.025l-.556-.38-.042-.048c-.386-.492-4.263-1.92-5.236-2.208-4.728-1.403-8.359-1.619-13.39-1.562-1.075.012-5.947.418-6.794.677.097.253.311.273.575.477.204.158.071.029.185.188z"/><path d="M37.504 51.43l-2.413 1.248c-.357.2-2.09 1.344-2.25 1.354-.122.209-1.677 1.354-1.952 1.625 0 0-.04.152-.065.181.385-.21.344-.365.845-.505l2.375-1.38c4.365-2.389 10.14-3.542 15.259-3.617 1.057-.015 2.779-.072 3.772.071.947.136.953-.082 2-.757.634-.408.406-.18.48-.434-3.087-.479-6.763-.425-9.849-.057-.338.04-.776.142-1.085.203-2.186.43-3.049.54-5.238 1.343-.59.217-1.28.573-1.879.725zm15.643-3.848l.17.164c.002.003.152.106.159.11.19.118.18.04.285.21.317.088.332.224.667.277-.105-.174-.382-.359-.547-.488-.295-.232-.336-.296-.642-.44.017.028.096.187.11.2l-.202-.033zm-22.268-1.558c-.125.213-.082.079.05.136 2.959-1.953 7.323-2.81 11.797-2.805a28.42 28.42 0 013.479.21c1.093.14 1.223.433 2.456 1.19.833.512 1.34.846 2.234 1.408.837.525 1.588.957 2.252 1.42l.201.032c-.013-.013-.092-.172-.11-.2l-1.161-.844c-.273-.2-.275-.173-.433-.408-.158.008-1.444-.96-1.558-1.122-.205-.088-.032.007-.256-.14-.061-.04-.177-.128-.243-.176l-2.279-1.704c-.341-.257-.561-.51-1.055-.585-1.896-.285-4.292-.218-6.165-.055-2.676.233-5.17 1.081-7.359 2.324-.405.23-1.596.991-1.85 1.32z"/><path d="M30.468 46.558c.048-.097.092-.096.211-.177l.126-.088c.096-.081.049-.043.12-.133-.13-.057-.173.077-.049-.136-.377.131-.269.166-.541.411-.033.27-.039.03.133.123zm-19.476-2.681c.113.033.106-.079.068.141.06-.023.147-.04.182-.056.115-.2.218-.236.335-.459a1.03 1.03 0 00-.311.11c-.252.13-.213.162-.274.264z"/></g><defs><clipPath id="clip0_413_2621"><path fill="#fff" d="M0 0h60v58H0z"/></clipPath></defs></svg>