<svg width="160" height="50" fill="none" xmlns="http://www.w3.org/2000/svg"><g clip-path="url(#clip0_413_2579)" fill="#F4F4F6"><path d="M101.473.258c-.048-.006-.086-.037-.086-.084 0-.048.038-.085.086-.085h52.255v31.54A76.31 76.31 0 00101.473.259zM58.742 22.061v6.777c-.81.687-1.561 1.194-2.702 1.194-1.381 0-3.183-1.164-3.183-4.537 0-3.642 2.852-6.269 5.885-3.434zm55.081 3.375c0 2.596-.871 4.656-2.822 4.656-1.952 0-2.822-2.06-2.822-4.656 0-2.598.87-4.658 2.822-4.658 1.951 0 2.822 2.06 2.822 4.658zm-8.947 0c0 3.134 2.341 5.731 6.125 5.731 3.782 0 6.124-2.597 6.124-5.731 0-3.135-2.342-5.733-6.124-5.733-3.784 0-6.125 2.598-6.125 5.733zm-75 0c0 2.596-.871 4.656-2.823 4.656-1.951 0-2.822-2.06-2.822-4.656 0-2.598.87-4.658 2.822-4.658s2.822 2.06 2.822 4.658zm-17.084-8.03h-1.771L7.478 26.51 3.695 16.032H.063l5.614 14.985h1.711l3.633-9.253 3.602 9.253h1.712l5.614-14.955h-1.711L16.305 26.51l-3.513-9.105zm118.034 13.64v-6.178c0-4.18-3.212-5.224-5.103-5.224-1.351 0-2.492.507-3.633 1.283l-.061-.03v-1.075h-2.881v11.225h3.121v-9.044c.931-.808 1.833-1.136 2.613-1.136 1.651 0 2.792 1.583 2.792 3.313v6.867h3.152zm-55.29 0h1.322l6.605-15.074H81.75L77.157 26.57l-4.533-10.598H68.84l6.695 15.075zm-20.367.24c1.471 0 2.672-.507 3.753-1.344l.06.03v1.075h2.882V13.882h-3.122v6.837c-.87-.658-2.191-1.075-3.543-1.075-1.711 0-5.794 1.045-5.794 5.97 0 3.672 3.242 5.672 5.764 5.672zm33.96-8.388c-.3 4.27 6.004 3.254 5.825 5.851-.091 1.044-.992 1.403-1.952 1.373-1.562-.12-2.522-1.015-3.363-2l-.93 2.06a9.316 9.316 0 003.842 1.164c2.702.179 4.985-.986 5.134-3.582.27-4.03-6.245-3.523-6.124-5.583.06-.895 1.08-1.343 2.13-1.284 1.082.09 1.923.687 2.853 1.523l.841-1.851a10.553 10.553 0 00-3.272-.836c-2.912-.179-4.864 1.343-4.985 3.165zm-3.115-8.15c-.931 0-1.651.717-1.651 1.643 0 .924.72 1.64 1.651 1.64s1.651-.716 1.651-1.64c0-.926-.72-1.643-1.65-1.643zm1.171 5.074h-3.122v11.225h3.122V19.822zm-66.257 5.614c0 3.134 2.342 5.731 6.125 5.731s6.125-2.597 6.125-5.731c0-3.135-2.342-5.733-6.125-5.733s-6.125 2.598-6.125 5.733zm26.743-11.554h-3.123v17.165h3.123V13.882zm-12.64 5.94v11.225h3.122v-9.135c1.052-.895 1.802-.597 3.874 1.105l1.261-2.806c-.63-.27-1.441-.567-2.612-.567s-2.042.567-2.462 1.075l-.15.178-.03-.03.03-1.045h-3.032zm67.802 0h-3.122v11.226h3.122V19.822zm-1.463-5.074c-.931 0-1.651.717-1.651 1.642 0 .925.72 1.641 1.651 1.641s1.651-.716 1.651-1.64c0-.926-.72-1.643-1.651-1.643zM2.125 39.852l-.493 3.483h4.891l.459-3.483h.537l-1.04 7.589H5.94l.515-3.628h-4.88l-.492 3.628H.547l1.04-7.59h.538zm9.098 6.526c.34-.508.51-1.16.51-1.953 0-.527-.12-.938-.36-1.235a1.137 1.137 0 00-.928-.445c-.56 0-1.005.273-1.337.818-.332.545-.498 1.192-.498 1.941 0 .49.115.885.347 1.185.23.3.537.45.917.45.56 0 1.01-.253 1.349-.761zm.352.306c-.432.586-1.003.879-1.712.879-.537 0-.962-.196-1.276-.59-.313-.393-.47-.894-.47-1.502 0-.95.219-1.712.655-2.287.436-.575 1.009-.862 1.718-.862.522 0 .942.193 1.259.578.317.386.475.902.475 1.547 0 .905-.216 1.65-.649 2.237zm2.182.412c.172.022.293.037.364.044.07.008.17.011.296.011.806 0 1.444-.232 1.914-.695.47-.464.705-1.081.705-1.853 0-.601-.145-1.067-.436-1.396a1.426 1.426 0 00-1.12-.496 2.09 2.09 0 00-.604.095 1.71 1.71 0 00-.57.295l-.549 3.995zm.783-5.753l-.179 1.335c.217-.134.426-.226.627-.278a2.5 2.5 0 01.627-.078c.574 0 1.037.21 1.387.628.351.42.526.97.526 1.653 0 .905-.278 1.623-.833 2.153-.556.53-1.308.796-2.255.796a4.44 4.44 0 01-.358-.017 12.244 12.244 0 01-.392-.039l-.325 2.404h-.481l.906-6.521a2.25 2.25 0 00-.285.29c-.1.118-.196.233-.285.345l-.224.3a.706.706 0 01-.112.133c-.037 0-.056-.022-.056-.067 0-.096.097-.294.291-.595.194-.3.433-.573.716-.818l.235-1.624h.47zm7.36 3.049c0-.512-.11-.917-.33-1.214-.22-.296-.535-.445-.945-.445-.381 0-.724.145-1.03.434-.306.29-.515.698-.627 1.225H21.9zm.46.367h-3.47a3.234 3.234 0 00-.023.434c0 .63.148 1.114.443 1.452.294.338.68.506 1.158.506.26 0 .516-.046.767-.139a3.18 3.18 0 00.8-.462l-.056.501a2.825 2.825 0 01-.733.384c-.25.085-.52.128-.812.128-.642 0-1.145-.215-1.51-.646-.366-.43-.549-1.008-.549-1.736 0-.778.218-1.45.655-2.014.436-.563.975-.845 1.617-.845.515 0 .932.187 1.253.562.321.375.482.922.482 1.641a.763.763 0 01-.023.234zm.874 1.781h.627l-.101.767c-.06.438-.172.775-.336 1.013a1.2 1.2 0 01-.615.478l.033-.29a.877.877 0 00.347-.4c.082-.178.142-.4.18-.667h-.258l.123-.902zm6.714-6.688l-1.097 7.923c-.12.83-.33 1.409-.632 1.736-.303.326-.719.49-1.248.49a2.52 2.52 0 01-.582-.067l-.123-.513c.119.03.224.052.313.067.09.015.198.023.324.023.411 0 .726-.125.946-.373.22-.25.375-.707.465-1.375l1.097-7.911h.537zm3.7 6.526c.34-.508.51-1.16.51-1.953 0-.527-.12-.938-.358-1.235a1.137 1.137 0 00-.93-.445c-.559 0-1.005.273-1.337.818-.331.545-.498 1.192-.498 1.941 0 .49.116.885.348 1.185.23.3.537.45.917.45.56 0 1.01-.253 1.349-.761zm.353.306c-.432.586-1.003.879-1.712.879-.537 0-.963-.196-1.276-.59-.313-.393-.47-.894-.47-1.502 0-.95.219-1.712.655-2.287.436-.575 1.009-.862 1.718-.862.522 0 .942.193 1.259.578.317.386.475.902.475 1.547 0 .905-.216 1.65-.649 2.237zm1.899-4.24l.783 4.24 2.138-4.24h.504L35.542 50h-.526l1.332-2.626-.94-4.93h.492zm9.296 4.434a2.47 2.47 0 00.745-.628l.47-3.45a7.38 7.38 0 00-.303-.039 3.361 3.361 0 00-.346-.016c-.814 0-1.461.254-1.942.762-.481.508-.722 1.159-.722 1.953 0 .512.114.914.342 1.207.227.293.531.44.911.44.284 0 .566-.076.845-.229zm1.74-4.423l-.67 4.986h-.482l.09-.69c-.5.52-1.045.779-1.635.779a1.44 1.44 0 01-1.18-.568c-.302-.378-.453-.872-.453-1.48 0-.942.287-1.704.861-2.287.575-.582 1.35-.873 2.328-.873a4.78 4.78 0 011.142.133zm4.854 1.53a7.67 7.67 0 01-.04.328l-.447 3.127h-.481l.447-3.127a6.659 6.659 0 00.056-.59c0-.325-.072-.569-.218-.728-.145-.16-.349-.24-.61-.24-.597 0-1.235.386-1.913 1.158l-.493 3.527h-.47l.683-4.996h.48l-.133.957c.649-.697 1.305-1.046 1.97-1.046.38 0 .673.119.878.356.205.237.307.572.307 1.002 0 .066-.005.157-.016.272zm3.804 3.145c.138-.016.274-.041.408-.079l.593-4.262a7.463 7.463 0 00-.363-.039 4.647 4.647 0 00-.398-.017c-.798 0-1.43.244-1.897.73-.466.485-.699 1.084-.699 1.797 0 .6.175 1.066.526 1.396.35.33.836.495 1.455.495.112 0 .237-.007.375-.022zm1.886-7.278l-1.052 7.567-.38.067c-.15.029-.283.05-.398.06a5.06 5.06 0 01-.465.017c-.79 0-1.397-.206-1.818-.617-.422-.412-.633-.967-.633-1.664 0-.86.291-1.567.873-2.12.582-.552 1.31-.829 2.183-.829a10.243 10.243 0 01.861.044l.347-2.525h.482zm5.194 0l-1.096 7.923c-.12.83-.33 1.409-.633 1.736-.302.326-.718.49-1.248.49-.201 0-.395-.023-.582-.067l-.123-.513c.12.03.224.052.314.067.09.015.197.023.324.023.41 0 .726-.125.946-.373.22-.25.375-.707.464-1.375l1.097-7.911h.537zm1.654 2.592l-.447 3.26-.034.29c-.007.067-.01.13-.01.19 0 .326.072.567.217.723.146.155.349.233.61.233.276 0 .567-.087.873-.261.306-.174.65-.47 1.03-.885l.481-3.55h.481l-.682 4.997h-.482l.124-.946c-.329.349-.651.608-.969.779-.317.17-.65.256-1.001.256-.388 0-.681-.12-.879-.362-.197-.24-.296-.558-.296-.951 0-.06.005-.138.017-.234a7.52 7.52 0 01.039-.3l.447-3.239h.481zm7.14.346l-.056.477a3.295 3.295 0 00-.75-.4 2.09 2.09 0 00-.682-.111c-.299 0-.54.074-.722.222a.687.687 0 00-.274.556c0 .32.242.631.727.935.485.305.855.59 1.108.857.254.267.38.582.38.946 0 .4-.14.716-.42.946-.279.23-.639.345-1.079.345h-.022c-.284 0-.566-.052-.845-.156a2.755 2.755 0 01-.778-.445l.112-.468c.507.43 1.018.646 1.533.646.336 0 .59-.085.76-.256a.832.832 0 00.258-.612c0-.415-.37-.846-1.113-1.291-.743-.445-1.114-.92-1.114-1.424 0-.356.14-.65.42-.88.28-.23.643-.344 1.091-.344.5 0 .989.152 1.466.456zm2.338-1.447l-.19 1.101h1.354l-.079.412h-1.353L73.1 45.46l-.056.44a3.585 3.585 0 00-.034.439c0 .282.066.486.196.612s.304.189.52.189c.172 0 .338-.031.499-.095.16-.062.308-.138.442-.228l-.056.468a2.14 2.14 0 01-.47.211c-.15.045-.31.067-.482.067-.313 0-.58-.093-.8-.278-.22-.186-.33-.482-.33-.89 0-.104.008-.234.022-.39.015-.156.041-.338.079-.545l.425-2.604h-.962l.067-.412h.974l.19-1.101h.481zm2.902-1.058l-.112.857h-.492l.112-.857h.492zm-.302 2.16l-.683 4.995h-.48l.693-4.996h.47zm4.667-.012l-.067.434a4.462 4.462 0 00-.409-.083 2.778 2.778 0 00-.408-.028c-.71 0-1.297.252-1.763.756-.466.505-.7 1.113-.7 1.825 0 .527.145.957.432 1.291.287.334.684.501 1.192.501a2.553 2.553 0 001.343-.4l-.068.511a3.05 3.05 0 01-1.376.323c-.605 0-1.091-.208-1.46-.623-.37-.416-.555-.961-.555-1.636 0-.816.276-1.517.829-2.103.552-.586 1.272-.88 2.16-.88.134 0 .277.012.43.034.153.022.293.048.42.078zm3.945 1.959c0-.512-.11-.917-.33-1.214-.22-.296-.536-.445-.946-.445-.38 0-.724.145-1.03.434-.306.29-.514.698-.627 1.225h2.933zm.459.367h-3.47a3.812 3.812 0 00-.022.434c0 .63.147 1.114.442 1.452.295.338.68.506 1.158.506.262 0 .517-.046.767-.139.25-.093.516-.246.8-.462l-.056.501a2.83 2.83 0 01-.733.384c-.25.085-.52.128-.811.128-.642 0-1.146-.215-1.511-.646-.366-.43-.549-1.008-.549-1.736 0-.778.219-1.45.655-2.014.436-.563.975-.845 1.617-.845.515 0 .933.187 1.254.562.32.375.48.922.48 1.641a.766.766 0 01-.021.234zm8.095-4.863l-.067.445a2.025 2.025 0 00-.532-.19 2.673 2.673 0 00-.532-.055c-.895 0-1.414.52-1.555 1.558l-.123.79h1.23l-.066.412h-1.22L89.8 49.61h-.48l.905-6.754h-.928l.067-.412h.929l.123-.824c.09-.63.302-1.114.638-1.452.335-.337.798-.506 1.387-.506a2.8 2.8 0 011.13.234zm1.44 6.482c.34-.508.509-1.16.509-1.953 0-.527-.12-.938-.358-1.235a1.138 1.138 0 00-.929-.445c-.56 0-1.006.273-1.337.818-.333.545-.499 1.192-.499 1.941 0 .49.116.885.348 1.185.23.3.537.45.917.45.56 0 1.009-.253 1.349-.761zm.352.306c-.433.586-1.003.879-1.712.879-.537 0-.963-.196-1.276-.59-.313-.393-.47-.894-.47-1.502 0-.95.218-1.712.655-2.287.436-.575 1.009-.862 1.718-.862.522 0 .942.193 1.258.578.318.386.476.902.476 1.547 0 .905-.216 1.65-.649 2.237zm4.651-4.207l-.168.479a.911.911 0 00-.425-.111c-.216 0-.44.085-.671.256a3.33 3.33 0 00-.65.645l-.402.534-.437 3.16h-.48l.693-4.996h.481l-.179 1.235c.38-.497.701-.842.963-1.035.26-.192.522-.289.783-.289a1.05 1.05 0 01.492.122zm4.254 1.848h2.496l-.817-3.795-1.679 3.795zm2.037-4.552l1.623 7.667h-.504l-.582-2.681h-2.764l-1.187 2.681h-.537l3.447-7.667h.504zm4.095.079l-.996 7.11h3.29l-.055.479h-3.828l1.052-7.59h.537zm4.758 0l-.996 7.11h3.29l-.055.479h-3.828l1.052-7.59h.537zm11.85-.034l-.09.479a10.69 10.69 0 00-.447-.05 4.692 4.692 0 00-.269-.006c-1.231 0-2.263.404-3.095 1.213-.832.809-1.247 1.777-1.247 2.904 0 .764.22 1.404.66 1.92.44.515 1.007.773 1.701.773.709 0 1.466-.26 2.272-.779l-.079.601a5.06 5.06 0 01-1.107.49 3.792 3.792 0 01-1.108.178c-.858 0-1.556-.304-2.093-.913-.537-.608-.806-1.357-.806-2.248 0-1.305.48-2.403 1.438-3.293.959-.89 2.11-1.336 3.453-1.336.283 0 .555.023.817.067zm1.782.034l-.492 3.527c.656-.705 1.327-1.057 2.014-1.057.328 0 .6.119.817.356.217.237.325.56.325.968a4.796 4.796 0 01-.068.679l-.436 3.116h-.481l.447-3.205a3.927 3.927 0 00.056-.557c0-.334-.08-.576-.24-.728a.838.838 0 00-.599-.229c-.284 0-.573.088-.867.262-.295.174-.64.477-1.036.907l-.492 3.55h-.481l1.052-7.59h.481zm5.011.433l-.112.857h-.492l.112-.857h.492zm-.302 2.16l-.683 4.995h-.481l.694-4.996h.47zm2.284-2.593l-1.052 7.589h-.47l1.04-7.59h.482zm3.353 7.278a2.51 2.51 0 00.408-.079l.593-4.262a7.381 7.381 0 00-.363-.039 4.658 4.658 0 00-.398-.017c-.798 0-1.431.244-1.897.73-.466.485-.699 1.084-.699 1.797 0 .6.175 1.066.526 1.396.35.33.835.495 1.455.495.111 0 .237-.007.375-.022zm1.885-7.278l-1.052 7.567-.38.067a3.92 3.92 0 01-.398.06 5.04 5.04 0 01-.464.017c-.791 0-1.397-.206-1.819-.617-.421-.412-.632-.967-.632-1.664 0-.86.291-1.567.873-2.12.582-.552 1.31-.829 2.182-.829a10.318 10.318 0 01.862.044l.347-2.525h.481zm3.572 2.625l-.168.479a.913.913 0 00-.425-.111c-.217 0-.441.085-.672.256a3.36 3.36 0 00-.649.645l-.403.534-.436 3.16h-.482l.694-4.996h.481l-.179 1.235c.381-.497.701-.842.963-1.035.261-.192.522-.289.783-.289a1.043 1.043 0 01.493.122zm3.279 1.915c0-.512-.11-.917-.33-1.214-.22-.296-.536-.445-.946-.445-.38 0-.724.145-1.029.434-.307.29-.515.698-.627 1.225h2.932zm.459.367h-3.47a3.48 3.48 0 00-.022.434c0 .63.147 1.114.442 1.452.295.338.681.506 1.159.506.261 0 .516-.046.766-.139a3.16 3.16 0 00.8-.462l-.056.501a2.824 2.824 0 01-.733.384c-.25.085-.52.128-.811.128-.642 0-1.146-.215-1.511-.646-.365-.43-.548-1.008-.548-1.736 0-.778.218-1.45.654-2.014.437-.563.976-.845 1.617-.845.515 0 .933.187 1.254.562.32.375.481.922.481 1.641a.763.763 0 01-.022.234zm4.907-.774a6.825 6.825 0 01-.039.328l-.448 3.127h-.481l.448-3.127a6.335 6.335 0 00.056-.59c0-.325-.073-.569-.219-.728-.145-.16-.348-.24-.609-.24-.598 0-1.235.386-1.914 1.158l-.492 3.527h-.471l.683-4.996h.481l-.134.957c.649-.697 1.306-1.046 1.97-1.046.38 0 .673.119.878.356.206.237.308.572.308 1.002 0 .066-.006.157-.017.272zm4.75-41.624a.467.467 0 00.266-.069c.068-.046.102-.116.102-.21 0-.179-.119-.268-.355-.268h-.256v.547h.243zm-.59-.784h.737c.191 0 .338.04.442.123a.41.41 0 01.156.342.406.406 0 01-.13.306.6.6 0 01-.343.155.443.443 0 01.176.1c.045.043.092.102.141.176l.33.5h-.404l-.256-.427c-.072-.117-.13-.189-.175-.215a.382.382 0 00-.189-.039h-.138v.681h-.347V1.577zm1.634 1.819c.266-.265.399-.585.399-.962a1.3 1.3 0 00-.401-.954 1.31 1.31 0 00-.956-.4c-.375 0-.698.135-.966.402-.27.267-.404.586-.404.957 0 .373.135.692.406.957.27.264.591.396.964.396s.692-.132.958-.396zm.119-2.04c.305.3.458.66.458 1.083 0 .417-.15.775-.451 1.075-.301.3-.662.45-1.084.45a1.49 1.49 0 01-1.095-.452 1.466 1.466 0 01-.453-1.073c0-.417.151-.776.453-1.078a1.488 1.488 0 011.091-.452c.416 0 .776.15 1.081.448z"/></g><defs><clipPath id="clip0_413_2579"><path fill="#fff" d="M0 0h160v50H0z"/></clipPath></defs></svg>