<svg width="50" height="50" fill="none" xmlns="http://www.w3.org/2000/svg"><path d="M46.958 13.375a5.791 5.791 0 00-4.041-4.167C39.333 8.333 25 8.333 25 8.333s-14.333 0-17.917.959a5.792 5.792 0 00-4.041 4.166 60.415 60.415 0 00-.959 11.021 60.44 60.44 0 00.959 11.104 5.791 5.791 0 004.041 4c3.584.959 17.917.959 17.917.959s14.333 0 17.917-.959a5.792 5.792 0 004.041-4.166c.651-3.61.972-7.27.959-10.938a60.424 60.424 0 00-.959-11.104z" stroke="#1F1F26" stroke-width="2.5" stroke-linecap="round" stroke-linejoin="round"/><path d="M20.313 31.293l11.979-6.813-11.98-6.812v13.625z" stroke="#1F1F26" stroke-width="2.5" stroke-linecap="round" stroke-linejoin="round"/></svg>